<svg width="293" height="64" viewBox="0 0 293 64" fill="none" xmlns="http://www.w3.org/2000/svg">
<mask id="mask0_19293_1763" style="mask-type:luminance" maskUnits="userSpaceOnUse" x="87" y="11" width="206" height="43">
<path d="M292.892 11.5566H87.0757V53.1156H292.892V11.5566Z" fill="white"/>
</mask>
<g mask="url(#mask0_19293_1763)">
<path d="M280.909 21.9463C284.251 21.9463 286.946 22.9702 288.994 25.018C291.072 27.0357 292.111 29.6557 292.111 32.8779C292.111 36.1002 291.072 38.7353 288.994 40.783C286.946 42.8007 284.251 43.8095 280.909 43.8095C277.536 43.8095 274.81 42.8007 272.732 40.783C270.685 38.7353 269.661 36.1002 269.661 32.8779C269.661 29.6557 270.685 27.0357 272.732 25.018C274.81 22.9702 277.536 21.9463 280.909 21.9463ZM277.295 37.1242C278.199 38.2083 279.402 38.7503 280.909 38.7503C282.414 38.7503 283.604 38.2083 284.477 37.1242C285.38 36.04 285.832 34.6245 285.832 32.8779C285.832 31.1313 285.38 29.7159 284.477 28.6318C283.604 27.5477 282.414 27.0055 280.909 27.0055C279.402 27.0055 278.199 27.5477 277.295 28.6318C276.391 29.7159 275.94 31.1313 275.94 32.8779C275.94 34.6245 276.391 36.04 277.295 37.1242Z" fill="white"/>
<path d="M233.262 21.9463C236.003 21.9463 238.17 22.669 239.767 24.1145C241.393 25.5299 242.207 27.3068 242.207 29.4449L242.07 31.0259L236.605 31.342C236.665 31.2217 236.695 30.9054 236.695 30.3935C236.695 29.4298 236.379 28.6318 235.747 27.9994C235.144 27.3368 234.287 27.0055 233.172 27.0055C231.757 27.0055 230.612 27.5325 229.739 28.5867C228.895 29.6407 228.474 31.0259 228.474 32.7424C228.474 34.6095 228.94 36.0852 229.874 37.1693C230.838 38.2233 232.208 38.7503 233.985 38.7503C236.514 38.7503 238.457 37.9222 239.812 36.2658L242.839 40.1507C242.055 41.1444 240.867 42.0027 239.27 42.7254C237.674 43.4482 235.777 43.8095 233.578 43.8095C230.055 43.8095 227.269 42.8158 225.222 40.8282C223.204 38.8105 222.195 36.1905 222.195 32.9683C222.195 29.6858 223.219 27.0357 225.267 25.018C227.314 22.9702 229.979 21.9463 233.262 21.9463Z" fill="white"/>
<path d="M210.748 39.1117C212.946 39.1117 214.783 38.2985 216.259 36.6724L219.195 40.0603C218.381 41.1143 217.178 42.0027 215.581 42.7254C214.015 43.4482 212.163 43.8095 210.025 43.8095C206.501 43.8095 203.701 42.8007 201.623 40.783C199.575 38.7654 198.551 36.1303 198.551 32.8779C198.551 29.6557 199.545 27.0357 201.533 25.018C203.52 22.9702 206.155 21.9463 209.438 21.9463C212.479 21.9463 214.874 22.8799 216.62 24.747C218.366 26.614 219.24 29.0383 219.24 32.0197L219.059 34.2783H204.695C204.965 35.7539 205.613 36.9284 206.636 37.8017C207.661 38.675 209.031 39.1117 210.748 39.1117ZM209.438 26.6442C208.203 26.6442 207.149 27.0357 206.275 27.8187C205.433 28.5715 204.905 29.6557 204.695 31.071H213.594C213.564 29.7762 213.171 28.7222 212.419 27.909C211.696 27.0658 210.703 26.6442 209.438 26.6442Z" fill="white"/>
<path d="M189.696 22.2174H194.575V42.7254C194.575 45.8574 193.49 48.3719 191.323 50.2692C189.154 52.1664 186.248 53.115 182.604 53.115C178.719 53.115 175.528 52.2718 173.028 50.5854L173.645 46.3198C175.603 47.7954 179.789 48.146 182.469 48.146C184.275 48.146 185.706 47.6943 186.76 46.7909C187.844 45.9175 188.386 44.6227 188.386 42.9062V40.2862C187.001 42.3038 184.863 43.3127 181.971 43.3127C179.141 43.3127 176.823 42.3792 175.015 40.512C173.208 38.6148 172.305 35.9798 172.305 32.6069C172.305 29.3847 173.163 26.8098 174.88 24.8825C176.596 22.925 178.915 21.9463 181.836 21.9463C185.239 21.9463 187.573 23.3768 188.838 26.2377H188.974C188.943 25.9064 189.004 25.3042 189.154 24.4308C189.305 23.5574 189.485 22.8197 189.696 22.2174ZM183.508 38.1179C184.983 38.1179 186.158 37.6059 187.031 36.582C187.934 35.528 188.386 34.3687 188.386 33.1038V32.1552C188.386 30.8 187.934 29.6255 187.031 28.6318C186.128 27.638 184.908 27.1412 183.371 27.1412C181.926 27.1412 180.768 27.638 179.894 28.6318C179.02 29.6255 178.584 30.9507 178.584 32.6069C178.584 34.2933 179.02 35.6334 179.894 36.6272C180.798 37.621 182.001 38.1179 183.508 38.1179Z" fill="white"/>
<path d="M160.496 21.9463C163.055 21.9463 165.012 22.7293 166.368 24.2953C167.753 25.8613 168.446 27.909 168.446 30.4387V43.5385H162.257V31.5228C162.257 30.2279 161.926 29.2039 161.263 28.451C160.631 27.6682 159.712 27.2767 158.508 27.2767C157.032 27.2767 155.903 27.8037 155.12 28.8577C154.367 29.9117 153.991 31.1313 153.991 32.5165V43.5385H147.802V22.2174L152.636 22.0367C153.147 23.6328 153.403 25.1234 153.403 26.5087H153.585C154.818 23.4672 157.122 21.9463 160.496 21.9463Z" fill="white"/>
<path d="M143.646 15.396C143.646 16.5103 143.255 17.4288 142.471 18.1515C141.689 18.8743 140.74 19.2357 139.626 19.2357C138.511 19.2357 137.563 18.8743 136.78 18.1515C136.028 17.4288 135.651 16.5103 135.651 15.396C135.651 14.3119 136.028 13.4085 136.78 12.6858C137.563 11.9329 138.511 11.5565 139.626 11.5565C140.74 11.5565 141.689 11.9329 142.471 12.6858C143.255 13.4085 143.646 14.3119 143.646 15.396ZM136.509 43.5382V22.217L142.698 22.0364V43.5382H136.509Z" fill="white"/>
<path d="M121.351 21.9463C124.694 21.9463 127.389 22.9702 129.436 25.018C131.515 27.0357 132.554 29.6557 132.554 32.8779C132.554 36.1002 131.515 38.7353 129.436 40.783C127.389 42.8007 124.694 43.8095 121.351 43.8095C117.978 43.8095 115.253 42.8007 113.175 40.783C111.127 38.7353 110.103 36.1002 110.103 32.8779C110.103 29.6557 111.127 27.0357 113.175 25.018C115.253 22.9702 117.978 21.9463 121.351 21.9463ZM117.737 37.1242C118.641 38.2083 119.845 38.7503 121.351 38.7503C122.857 38.7503 124.046 38.2083 124.919 37.1242C125.823 36.04 126.275 34.6245 126.275 32.8779C126.275 31.1313 125.823 29.7159 124.919 28.6318C124.046 27.5477 122.857 27.0055 121.351 27.0055C119.845 27.0055 118.641 27.5477 117.737 28.6318C116.834 29.7159 116.382 31.1313 116.382 32.8779C116.382 34.6245 116.834 36.04 117.737 37.1242Z" fill="white"/>
<path d="M98.1428 21.9463C100.883 21.9463 103.052 22.669 104.648 24.1145C106.274 25.5299 107.087 27.3068 107.087 29.4449L106.951 31.0259L101.486 31.342C101.546 31.2217 101.576 30.9054 101.576 30.3935C101.576 29.4298 101.26 28.6318 100.627 27.9994C100.025 27.3368 99.1667 27.0055 98.0524 27.0055C96.6371 27.0055 95.4927 27.5325 94.6194 28.5867C93.7762 29.6407 93.3546 31.0259 93.3546 32.7424C93.3546 34.6095 93.8214 36.0852 94.7549 37.1693C95.7186 38.2233 97.0888 38.7503 98.8656 38.7503C101.395 38.7503 103.338 37.9222 104.693 36.2658L107.719 40.1507C106.936 41.1444 105.747 42.0027 104.151 42.7254C102.555 43.4482 100.657 43.8095 98.4591 43.8095C94.9356 43.8095 92.1501 42.8158 90.1022 40.8282C88.0846 38.8105 87.0757 36.1905 87.0757 32.9683C87.0757 29.6858 88.0996 27.0357 90.1474 25.018C92.1952 22.9702 94.8603 21.9463 98.1428 21.9463Z" fill="white"/>
<path d="M262.04 34.0471C263.324 36.2932 264.605 38.1206 265.939 40.0241C266.519 40.8498 267.108 41.6899 267.712 42.5848C268.478 43.7218 267.484 45.0843 266.217 44.56C261.274 42.5155 257.664 38.6683 255.19 35.0465H252.54V43.5387H246.352V11.6473H252.54V30.2131H255.16C256.847 30.2131 258.172 29.7011 259.135 28.6772C260.099 27.6533 260.58 26.1927 260.58 24.2955C260.58 23.8137 260.52 23.1211 260.4 22.2176H266.318C266.468 22.9102 266.544 23.6481 266.544 24.431C266.544 28.6253 264.672 32.2187 262.04 34.0471Z" fill="white"/>
</g>
<mask id="mask1_19293_1763" style="mask-type:luminance" maskUnits="userSpaceOnUse" x="0" y="0" width="64" height="64">
<path d="M63.3279 0H0V64H63.3279V0Z" fill="white"/>
</mask>
<g mask="url(#mask1_19293_1763)">
<path d="M63.3276 31.7481C63.4067 49.3617 49.2937 63.7039 31.8079 63.7835C14.3196 63.8632 0.0794965 49.6493 0.000331428 32.0357C-0.0788336 14.4221 14.0341 0.080046 31.5224 0.000313977C49.0082 -0.077002 63.2484 14.1346 63.3276 31.7481Z" fill="#FFE866"/>
<path d="M47.7229 20.4799C45.4246 19.8106 43.0449 18.8586 40.6315 17.8994C40.4924 17.2906 39.9575 16.5319 38.8731 15.6018C37.297 14.2245 34.3367 14.2608 31.7795 14.8696C28.9559 14.2004 26.166 13.9611 23.4887 14.6086C1.59596 20.6853 14.0081 35.5033 5.96924 50.4035C7.11354 52.8463 19.7342 64.5823 37.2802 63.2791C37.2802 63.2791 31.1797 48.5141 44.9472 41.4253C56.1144 35.6773 64.182 25.0029 47.7204 20.4774L47.7229 20.4799Z" fill="#4BCC00"/>
<path d="M33.2955 24.0325C33.2955 27.4393 30.5535 30.1985 27.1734 30.1985C23.7933 30.1985 21.0513 27.4393 21.0513 24.0325C21.0513 20.6258 23.7933 17.869 27.1734 17.869C30.5535 17.869 33.2955 20.6281 33.2955 24.0325Z" fill="white"/>
<path d="M55.3847 32.9062C50.4261 36.4265 44.7813 39.0962 36.7809 39.0962C33.0362 39.0962 32.2757 35.088 29.7999 37.0522C28.5213 38.067 24.0162 40.3357 20.4393 40.1642C16.8313 39.9902 11.0714 37.8786 9.45215 30.1929C8.81164 37.8786 8.48538 43.542 5.61865 50.0316C12.6558 60.374 24.9257 65.5195 37.2799 63.2817C35.9533 53.9482 44.0521 44.808 48.6149 40.1304C50.3421 38.3594 53.6527 35.4672 55.3847 32.9062Z" fill="#4BCC00"/>
<path d="M29.7536 29.0199C31.7377 29.0199 33.3462 26.7681 33.3462 23.9904C33.3462 21.2127 31.7377 18.9609 29.7536 18.9609C27.7696 18.9609 26.1611 21.2127 26.1611 23.9904C26.1611 26.7681 27.7696 29.0199 29.7536 29.0199Z" fill="white"/>
<path d="M31.1909 14.8579C33.1509 15.6414 40.3085 18.0254 43.4054 18.9612C40.2435 13.7147 35.4518 14.0174 31.1909 14.8579Z" fill="#35AF00"/>
<path d="M29.7535 23.9898L25.4424 21.1158V26.8638L29.7535 23.9898Z" fill="white"/>
</g>
</svg>
