<svg width="259" height="64" viewBox="0 0 259 64" fill="none" xmlns="http://www.w3.org/2000/svg">
<path d="M69.3716 36.2397C69.3716 27.6061 75.6991 21.3922 84.3924 21.3922C93.0858 21.3922 99.4132 27.6061 99.4132 36.2397C99.4132 44.8731 93.0858 51.0871 84.3924 51.0871C75.7541 51.0871 69.3716 44.8731 69.3716 36.2397ZM93.1408 36.2397C93.1408 30.8505 89.6744 26.7813 84.3924 26.7813C79.1103 26.7813 75.6991 30.8505 75.6991 36.2397C75.6991 41.5738 79.1103 45.698 84.3924 45.698C89.6744 45.6429 93.1408 41.5738 93.1408 36.2397Z" fill="white"/>
<path d="M101.779 46.5192L105.08 41.845C107.116 43.9346 110.253 45.6944 114.214 45.6944C117.57 45.6944 119.221 44.1546 119.221 42.5049C119.221 37.4457 102.66 40.9101 102.66 30.077C102.66 25.2929 106.786 21.3336 113.554 21.3336C118.121 21.3336 121.917 22.7084 124.779 25.3478L121.367 29.802C119.056 27.6575 115.92 26.6677 113.004 26.6677C110.363 26.6677 108.932 27.8225 108.932 29.5271C108.932 34.0914 125.439 31.0119 125.439 41.735C125.439 47.0141 121.697 50.9734 113.939 50.9734C108.437 51.0834 104.475 49.2137 101.779 46.5192Z" fill="white"/>
<path d="M154.599 50.5873V30.4608L146.512 50.5873H143.816L135.727 30.4608V50.5873H129.62V21.8273H138.203L145.191 39.2043L152.179 21.8273H160.817V50.5322H154.599V50.5873Z" fill="white"/>
<path d="M165.054 36.2365C165.054 27.6031 171.381 21.3891 180.074 21.3891C188.768 21.3891 195.096 27.6031 195.096 36.2365C195.096 44.87 188.768 51.084 180.074 51.084C171.381 51.084 165.054 44.87 165.054 36.2365ZM188.823 36.2365C188.823 30.8474 185.356 26.7781 180.074 26.7781C174.792 26.7781 171.381 30.8474 171.381 36.2365C171.381 41.5706 174.792 45.6948 180.074 45.6948C185.356 45.6399 188.823 41.5706 188.823 36.2365Z" fill="white"/>
<path d="M197.461 46.5192L200.763 41.845C202.798 43.9346 205.934 45.6944 209.896 45.6944C213.253 45.6944 214.903 44.1546 214.903 42.5049C214.903 37.4457 198.342 40.9101 198.342 30.077C198.342 25.2929 202.468 21.3336 209.236 21.3336C213.802 21.3336 217.599 22.7084 220.461 25.3478L217.048 29.802C214.738 27.6575 211.601 26.6677 208.686 26.6677C206.045 26.6677 204.615 27.8225 204.615 29.5271C204.615 34.0914 221.12 31.0119 221.12 41.735C221.12 47.0141 217.379 50.9734 209.621 50.9734C204.118 51.0834 200.158 49.2137 197.461 46.5192Z" fill="white"/>
<path d="M225.248 50.5873V21.8273H231.41V50.5322H225.248V50.5873Z" fill="white"/>
<path d="M235.152 46.5192L238.452 41.845C240.488 43.9346 243.625 45.6944 247.585 45.6944C250.942 45.6944 252.594 44.1546 252.594 42.5049C252.594 37.4457 236.031 40.9101 236.031 30.077C236.031 25.2929 240.159 21.3336 246.926 21.3336C251.493 21.3336 255.288 22.7084 258.15 25.3478L254.739 29.802C252.428 27.6575 249.292 26.6677 246.375 26.6677C243.734 26.6677 242.304 27.8225 242.304 29.5271C242.304 34.0914 258.81 31.0119 258.81 41.735C258.81 47.0141 255.07 50.9734 247.311 50.9734C241.754 51.0834 237.792 49.2137 235.152 46.5192Z" fill="white"/>
<path d="M58.5285 11.3136C57.8767 8.80478 55.7814 6.29586 52.01 3.50297C48.9833 1.27813 45.7706 3.05176e-05 43.2097 3.05176e-05C42.6976 3.05176e-05 42.2319 0.0473638 41.7663 0.142043C40.6023 0.378722 39.5779 1.2308 38.926 2.5089C38.1345 4.02368 37.9483 6.0592 38.4604 7.28999C38.6467 7.66866 38.8795 8.14199 39.1588 8.56798C36.6911 10.0828 35.2941 10.5089 35.1079 10.5562C41.5335 12.7337 46.888 17.2781 50.2406 23.1951L50.2871 22.6271C50.4268 21.065 50.8924 19.2662 51.5442 17.4201C52.1962 17.6094 52.848 17.7041 53.4998 17.7041C55.2227 17.7041 56.7127 16.9941 57.6439 15.7159C58.5751 14.4378 58.9477 12.7337 58.5285 11.3136Z" fill="#5E12A0"/>
<path d="M51.8232 16.0472C56.0603 17.2307 57.783 13.9171 57.2243 11.6923C56.619 9.46737 54.6634 7.19525 51.2179 4.63902C47.7723 2.08282 44.2802 1.04142 42.0452 1.51479C39.8103 1.98816 39.1583 5.44379 39.7171 6.76925C39.9499 7.28991 40.4621 8.04724 41.1605 8.89937C40.2758 9.5147 39.4376 9.98817 38.7393 10.4142C43.023 12.355 46.748 15.3845 49.5416 19.1714C49.8676 17.8933 50.3332 16.7573 50.7522 15.7632C51.0781 15.8105 51.4507 15.9052 51.8232 16.0472Z" fill="url(#paint0_radial_19233_6524)"/>
<path d="M27.5647 62.4375C41.9396 62.4375 53.5928 50.5904 53.5928 35.9762C53.5928 21.3619 41.9396 9.51477 27.5647 9.51477C13.1898 9.51477 1.53662 21.3619 1.53662 35.9762C1.53662 50.5904 13.1898 62.4375 27.5647 62.4375Z" fill="url(#paint1_radial_19233_6524)"/>
<path opacity="0.6" d="M55.0825 9.51515C51.5438 5.72824 48.5639 4.73412 44.9786 3.9294C42.1849 3.26668 42.9298 1.65722 46.3289 1.98858C44.6992 1.42054 43.1626 1.27853 42.0452 1.51521C39.8103 1.98858 39.1583 5.44424 39.7171 6.76957C39.9499 7.29036 40.4621 8.04769 41.1605 8.89982C39.9034 9.75182 38.8324 10.3673 37.9478 10.8406C38.3668 11.0299 38.8789 11.2666 39.4843 11.5979C41.0673 12.4501 42.7902 13.8702 42.7902 13.8702C40.1827 11.5979 40.7414 10.5566 44.3268 8.00036C45.4442 7.1957 47.4929 7.29036 49.402 8.28436C51.311 9.27849 53.546 11.7874 53.546 11.7874L51.4041 15.953C51.5438 16.0003 51.6835 16.0476 51.8232 16.095C53.1735 16.4736 54.2444 16.379 55.0825 16.0476C56.0603 15.4323 58.6212 13.3495 55.0825 9.51515Z" fill="#A98698"/>
<path d="M44.9323 6.20163C45.8637 6.58029 47.0742 7.24296 48.5642 8.23708C50.3336 9.42054 51.8701 10.7459 52.8479 11.7873C51.2182 13.9648 50.1472 16.947 49.4954 19.03C49.8213 19.5033 50.1938 19.9766 50.5198 20.45C50.8458 19.2666 51.4045 17.5152 52.1494 15.7636C52.3357 15.811 52.5684 15.811 52.8014 15.811C53.3601 15.811 54.0119 15.7162 54.5241 15.2902C54.8965 15.0062 55.3157 14.4856 55.2691 13.5388C55.2691 12.6395 54.5706 11.5033 53.1273 10.1305C52.1029 9.13641 50.7061 8.04775 49.3092 7.05362C45.3048 4.35542 42.5111 3.59803 41.254 4.87613C40.4158 5.72816 40.509 6.76963 40.7883 7.52695C39.2984 8.52108 38.0412 9.23108 37.2031 9.70454C37.7618 9.89388 38.274 10.1305 38.8328 10.3672C40.3227 9.56254 42.4646 8.18975 44.9323 6.20163ZM53.7326 12.9708C53.8722 13.2075 53.9188 13.4441 53.9188 13.5861C53.9188 14.0121 53.7791 14.1543 53.686 14.2489C53.4998 14.3909 53.1273 14.4856 52.8014 14.4856C53.0807 13.9175 53.4066 13.4441 53.7326 12.9708ZM42.2318 5.9175C42.3715 5.7755 42.7439 5.68083 43.3493 5.7755C42.8836 6.15429 42.418 6.48563 41.9524 6.81696C41.9059 6.48563 41.9524 6.1543 42.2318 5.9175Z" fill="#5E12A0"/>
<path d="M27.5646 7.95288C12.3388 7.95288 0 20.4972 0 35.9765C0 51.4557 12.3388 64 27.5646 64C42.7904 64 55.1293 51.4557 55.1293 35.9765C55.1293 20.4972 42.7438 7.95288 27.5646 7.95288ZM27.5646 62.4379C13.177 62.4379 1.53655 50.6036 1.53655 35.9765C1.53655 21.3493 13.177 9.515 27.5646 9.515C41.9522 9.515 53.5927 21.3493 53.5927 35.9765C53.5927 50.6036 41.9056 62.4379 27.5646 62.4379Z" fill="#5E12A0"/>
<path opacity="0.6" d="M27.5647 62.4375C41.9396 62.4375 53.5928 50.5904 53.5928 35.9762C53.5928 21.3619 41.9396 9.51477 27.5647 9.51477C13.1898 9.51477 1.53662 21.3619 1.53662 35.9762C1.53662 50.5904 13.1898 62.4375 27.5647 62.4375Z" fill="url(#paint2_linear_19233_6524)"/>
<path opacity="0.6" d="M27.3786 59.219C13.1771 56.8995 3.53884 43.3138 5.86693 28.876C6.89136 22.4855 10.0575 17.0417 14.5275 13.1128C8.00878 16.947 3.16636 23.6215 1.86264 31.7636C-0.418891 46.2014 9.21946 59.787 23.3742 62.1065C31.2897 63.432 38.9259 60.9232 44.5599 56.0001C39.5778 58.9349 33.5247 60.213 27.3786 59.219Z" fill="#A98698"/>
<path opacity="0.6" d="M31.7087 9.89343C25.1434 8.80464 18.7644 10.3194 13.5495 13.6803C13.4564 13.775 13.3633 13.8697 13.3633 13.8697C15.3654 12.639 18.2988 11.5502 18.2988 11.5502C10.7558 15.9999 8.42773 21.065 8.42773 21.065C11.3611 15.2898 19.9751 11.2189 26.7266 10.9348C33.478 10.6508 37.9014 12.6863 43.3026 17.0886C48.7037 21.5383 51.9631 30.6271 51.6372 37.8222C51.3577 45.0175 47.6328 50.8399 47.6328 50.8399C50.1937 47.479 51.7303 45.0175 52.708 42.5086C52.8943 41.7513 53.0805 40.9938 53.1736 40.1891C55.5017 25.7987 45.91 12.2129 31.7087 9.89343Z" fill="url(#paint3_linear_19233_6524)"/>
<path d="M52.2888 35.7396C52.2888 49.6094 41.207 60.8756 27.5644 60.8756C13.9218 60.8756 2.79346 49.6094 2.79346 35.7396H52.2888Z" fill="url(#paint4_linear_19233_6524)"/>
<g opacity="0.6">
<path opacity="0.6" d="M50.3331 35.7396C50.3331 49.2779 39.81 60.3548 26.5864 60.8756C26.9125 60.8756 27.2384 60.8756 27.5643 60.8756C41.2069 60.8756 52.2887 49.6094 52.2887 35.7396H50.3331Z" fill="url(#paint5_linear_19233_6524)"/>
</g>
<g opacity="0.7">
<path opacity="0.7" d="M6.28566 35.7396H2.79346C2.79346 49.6094 13.8752 60.8756 27.5178 60.8756C28.1231 60.8756 28.6818 60.8756 29.2407 60.8283C16.4361 59.8815 6.28566 48.9939 6.28566 35.7396Z" fill="url(#paint6_linear_19233_6524)"/>
</g>
<path d="M52.2422 35.9762C52.2422 33.0887 47.3065 31.4319 40.7414 30.8638C35.9921 30.4851 31.1961 30.9585 25.7019 32.6626C20.9526 34.0827 16.6689 33.8461 13.5493 33.4674C6.61158 32.6626 2.79346 32.5679 2.79346 35.9762C2.79346 40.8992 12.6645 47.053 27.4713 44.9229C34.9677 43.8341 38.8324 41.6093 43.2558 40.0946C48.0516 38.4851 52.2422 38.5324 52.2422 35.9762Z" fill="url(#paint7_linear_19233_6524)"/>
<path d="M35.6662 24.0473C37.9805 24.0473 39.8568 22.1399 39.8568 19.7869C39.8568 17.434 37.9805 15.5267 35.6662 15.5267C33.3518 15.5267 31.4756 17.434 31.4756 19.7869C31.4756 22.1399 33.3518 24.0473 35.6662 24.0473Z" fill="white"/>
<path d="M42.5111 27.2188C43.4883 27.2188 44.2805 26.4134 44.2805 25.42C44.2805 24.4266 43.4883 23.6211 42.5111 23.6211C41.5339 23.6211 40.7417 24.4266 40.7417 25.42C40.7417 26.4134 41.5339 27.2188 42.5111 27.2188Z" fill="white"/>
<g opacity="0.6">
<path opacity="0.6" d="M48.8435 16.379C48.7969 16.379 48.7504 16.379 48.7504 16.379C48.471 16.3316 48.2848 16.0476 48.3313 15.7163C48.7504 13.5387 50.5198 11.4559 50.6129 11.3612C50.7991 11.1246 51.1716 11.1246 51.3578 11.3139C51.5906 11.5032 51.5906 11.8819 51.4044 12.0712C51.3578 12.1186 49.7281 14.0595 49.3557 15.953C49.3091 16.237 49.0763 16.379 48.8435 16.379Z" fill="url(#paint8_linear_19233_6524)"/>
</g>
<path opacity="0.2" d="M25.8448 55.7159C26.5648 55.7159 27.1486 55.1224 27.1486 54.3904C27.1486 53.6584 26.5648 53.0649 25.8448 53.0649C25.1248 53.0649 24.541 53.6584 24.541 54.3904C24.541 55.1224 25.1248 55.7159 25.8448 55.7159Z" fill="white"/>
<g opacity="0.4">
<path opacity="0.6" d="M25.0972 55.2439C24.5851 54.7232 24.5851 53.8711 25.0972 53.3504C25.1903 53.2558 25.2834 53.2084 25.3766 53.1138C25.1903 53.1611 25.0506 53.2558 24.911 53.3978C24.3988 53.9184 24.3988 54.7706 24.911 55.2912C25.33 55.7174 25.9818 55.812 26.4941 55.5279C26.0284 55.7174 25.4697 55.6227 25.0972 55.2439Z" fill="url(#paint9_linear_19233_6524)"/>
</g>
<path opacity="0.3" d="M26.3077 54.0114C26.462 54.0114 26.5872 53.8842 26.5872 53.7274C26.5872 53.5704 26.462 53.4434 26.3077 53.4434C26.1535 53.4434 26.0283 53.5704 26.0283 53.7274C26.0283 53.8842 26.1535 54.0114 26.3077 54.0114Z" fill="white"/>
<path opacity="0.2" d="M32.6427 55.053C33.3627 55.053 33.9463 54.4596 33.9463 53.7276C33.9463 52.9956 33.3627 52.4021 32.6427 52.4021C31.9227 52.4021 31.3389 52.9956 31.3389 53.7276C31.3389 54.4596 31.9227 55.053 32.6427 55.053Z" fill="white"/>
<g opacity="0.4">
<path opacity="0.6" d="M31.8946 54.5813C31.3824 54.0606 31.3824 53.2085 31.8946 52.6878C31.9877 52.5932 32.0808 52.5458 32.1739 52.4512C31.9877 52.4985 31.848 52.5932 31.7083 52.7352C31.1962 53.2558 31.1962 54.108 31.7083 54.6286C32.1274 55.0548 32.7792 55.1494 33.2915 54.8653C32.8258 55.0548 32.267 54.9601 31.8946 54.5813Z" fill="url(#paint10_linear_19233_6524)"/>
</g>
<path opacity="0.3" d="M33.1055 53.3491C33.2599 53.3491 33.3849 53.2219 33.3849 53.0651C33.3849 52.9082 33.2599 52.7811 33.1055 52.7811C32.9513 52.7811 32.8262 52.9082 32.8262 53.0651C32.8262 53.2219 32.9513 53.3491 33.1055 53.3491Z" fill="white"/>
<path opacity="0.2" d="M29.2873 58.1298C29.8273 58.1298 30.2652 57.6848 30.2652 57.1358C30.2652 56.5868 29.8273 56.1417 29.2873 56.1417C28.7473 56.1417 28.3096 56.5868 28.3096 57.1358C28.3096 57.6848 28.7473 58.1298 29.2873 58.1298Z" fill="white"/>
<g opacity="0.4">
<path opacity="0.6" d="M28.7286 57.7526C28.3561 57.374 28.3561 56.7113 28.7286 56.3325C28.7752 56.2852 28.8683 56.2379 28.9148 56.1905C28.7752 56.2379 28.682 56.3327 28.5889 56.4273C28.2165 56.806 28.2165 57.4687 28.5889 57.8473C28.9148 58.1788 29.3804 58.2261 29.7995 57.9894C29.427 58.1314 29.008 58.0368 28.7286 57.7526Z" fill="url(#paint11_linear_19233_6524)"/>
</g>
<path opacity="0.3" d="M29.6135 56.8048C29.7163 56.8048 29.7997 56.7201 29.7997 56.6154C29.7997 56.5109 29.7163 56.4261 29.6135 56.4261C29.5106 56.4261 29.4272 56.5109 29.4272 56.6154C29.4272 56.7201 29.5106 56.8048 29.6135 56.8048Z" fill="white"/>
<path opacity="0.2" d="M35.2937 57.42C35.8337 57.42 36.2715 56.9749 36.2715 56.426C36.2715 55.877 35.8337 55.4319 35.2937 55.4319C34.7536 55.4319 34.3159 55.877 34.3159 56.426C34.3159 56.9749 34.7536 57.42 35.2937 57.42Z" fill="white"/>
<g opacity="0.4">
<path opacity="0.6" d="M34.7349 57.0428C34.3625 56.6642 34.3625 56.0014 34.7349 55.6227C34.7815 55.5754 34.8746 55.528 34.9212 55.4807C34.7815 55.528 34.6884 55.6227 34.5953 55.7174C34.2228 56.0962 34.2228 56.7588 34.5953 57.1375C34.9212 57.4688 35.3868 57.5162 35.8058 57.2795C35.4333 57.4215 35.0143 57.3268 34.7349 57.0428Z" fill="url(#paint12_linear_19233_6524)"/>
</g>
<path opacity="0.3" d="M35.6198 56.0943C35.7227 56.0943 35.8061 56.0095 35.8061 55.905C35.8061 55.8005 35.7227 55.7157 35.6198 55.7157C35.517 55.7157 35.4336 55.8005 35.4336 55.905C35.4336 56.0095 35.517 56.0943 35.6198 56.0943Z" fill="white"/>
<path opacity="0.2" d="M20.301 55.2422C21.4838 55.2422 22.4428 54.2673 22.4428 53.0647C22.4428 51.8621 21.4838 50.8872 20.301 50.8872C19.1181 50.8872 18.1592 51.8621 18.1592 53.0647C18.1592 54.2673 19.1181 55.2422 20.301 55.2422Z" fill="white"/>
<g opacity="0.4">
<path opacity="0.6" d="M19.0915 54.4377C18.2534 53.5855 18.2534 52.2127 19.0915 51.3607C19.2313 51.2187 19.371 51.1241 19.5572 51.0294C19.2779 51.1241 19.0449 51.3134 18.8121 51.5027C17.9741 52.3547 17.9741 53.7275 18.8121 54.5797C19.5107 55.2897 20.5815 55.4317 21.4196 54.911C20.6281 55.2423 19.6969 55.1003 19.0915 54.4377Z" fill="url(#paint13_linear_19233_6524)"/>
</g>
<path opacity="0.3" d="M21.0457 52.4022C21.3029 52.4022 21.5114 52.1902 21.5114 51.9289C21.5114 51.6674 21.3029 51.4554 21.0457 51.4554C20.7886 51.4554 20.5801 51.6674 20.5801 51.9289C20.5801 52.1902 20.7886 52.4022 21.0457 52.4022Z" fill="white"/>
<path opacity="0.2" d="M39.4387 49.8936C40.6217 49.8936 41.5806 48.9188 41.5806 47.7162C41.5806 46.5135 40.6217 45.5387 39.4387 45.5387C38.2558 45.5387 37.2969 46.5135 37.2969 47.7162C37.2969 48.9188 38.2558 49.8936 39.4387 49.8936Z" fill="white"/>
<g opacity="0.4">
<path opacity="0.6" d="M38.1805 49.0886C37.3423 48.2366 37.3423 46.8638 38.1805 46.0117C38.3201 45.8697 38.4598 45.775 38.6461 45.6803C38.3667 45.775 38.1339 45.9643 37.9011 46.1537C37.0629 47.0058 37.0629 48.3786 37.9011 49.2306C38.5995 49.9407 39.6704 50.0827 40.5086 49.562C39.7169 49.8934 38.8323 49.7514 38.1805 49.0886Z" fill="url(#paint14_linear_19233_6524)"/>
</g>
<path opacity="0.3" d="M40.1829 47.0532C40.4401 47.0532 40.6486 46.8411 40.6486 46.5797C40.6486 46.3182 40.4401 46.1064 40.1829 46.1064C39.9258 46.1064 39.7173 46.3182 39.7173 46.5797C39.7173 46.8411 39.9258 47.0532 40.1829 47.0532Z" fill="white"/>
<defs>
<radialGradient id="paint0_radial_19233_6524" cx="0" cy="0" r="1" gradientUnits="userSpaceOnUse" gradientTransform="translate(56.375 8.70991) scale(20.8105 21.157)">
<stop stop-color="#FFEAFF" stop-opacity="0.6"/>
<stop offset="0.6807" stop-color="#A087C9"/>
<stop offset="1" stop-color="#10002F"/>
</radialGradient>
<radialGradient id="paint1_radial_19233_6524" cx="0" cy="0" r="1" gradientUnits="userSpaceOnUse" gradientTransform="translate(44.7975 17.7331) scale(50.9158 51.7636)">
<stop stop-color="#FFEAFF" stop-opacity="0.6"/>
<stop offset="0.6807" stop-color="#A087C9"/>
<stop offset="1" stop-color="#10002F"/>
</radialGradient>
<linearGradient id="paint2_linear_19233_6524" x1="23.3896" y1="62.0622" x2="31.9869" y2="9.89109" gradientUnits="userSpaceOnUse">
<stop stop-color="#81FFFF"/>
<stop offset="0.6202" stop-color="white" stop-opacity="0"/>
</linearGradient>
<linearGradient id="paint3_linear_19233_6524" x1="45.9077" y1="18.0054" x2="24.0606" y2="37.7225" gradientUnits="userSpaceOnUse">
<stop offset="0.2888" stop-color="white"/>
<stop offset="0.7796" stop-color="white" stop-opacity="0"/>
</linearGradient>
<linearGradient id="paint4_linear_19233_6524" x1="2.8144" y1="48.2929" x2="52.2768" y2="48.2929" gradientUnits="userSpaceOnUse">
<stop stop-color="#0002E9"/>
<stop offset="0.9952" stop-color="#FF00C7"/>
</linearGradient>
<linearGradient id="paint5_linear_19233_6524" x1="54.618" y1="37.9452" x2="27.2769" y2="63.361" gradientUnits="userSpaceOnUse">
<stop offset="0.2888" stop-color="white"/>
<stop offset="0.7796" stop-color="white" stop-opacity="0"/>
</linearGradient>
<linearGradient id="paint6_linear_19233_6524" x1="2.8144" y1="48.2929" x2="29.2766" y2="48.2929" gradientUnits="userSpaceOnUse">
<stop stop-color="#000292"/>
<stop offset="0.9952" stop-color="#7D00C7"/>
</linearGradient>
<linearGradient id="paint7_linear_19233_6524" x1="2.84762" y1="38.0644" x2="52.2436" y2="38.0644" gradientUnits="userSpaceOnUse">
<stop stop-color="#000292"/>
<stop offset="0.9952" stop-color="#BE00C7"/>
</linearGradient>
<linearGradient id="paint8_linear_19233_6524" x1="51.4335" y1="11.1307" x2="47.7976" y2="16.9421" gradientUnits="userSpaceOnUse">
<stop offset="0.2888" stop-color="white"/>
<stop offset="0.7796" stop-color="white" stop-opacity="0"/>
</linearGradient>
<linearGradient id="paint9_linear_19233_6524" x1="24.5256" y1="54.4324" x2="26.4954" y2="54.4324" gradientUnits="userSpaceOnUse">
<stop offset="0.2888" stop-color="white"/>
<stop offset="0.7796" stop-color="white" stop-opacity="0"/>
</linearGradient>
<linearGradient id="paint10_linear_19233_6524" x1="31.3181" y1="53.7609" x2="33.2881" y2="53.7609" gradientUnits="userSpaceOnUse">
<stop offset="0.2888" stop-color="white"/>
<stop offset="0.7796" stop-color="white" stop-opacity="0"/>
</linearGradient>
<linearGradient id="paint11_linear_19233_6524" x1="28.3034" y1="57.1487" x2="29.7824" y2="57.1487" gradientUnits="userSpaceOnUse">
<stop offset="0.2888" stop-color="white"/>
<stop offset="0.7796" stop-color="white" stop-opacity="0"/>
</linearGradient>
<linearGradient id="paint12_linear_19233_6524" x1="34.2896" y1="56.437" x2="35.7686" y2="56.437" gradientUnits="userSpaceOnUse">
<stop offset="0.2888" stop-color="white"/>
<stop offset="0.7796" stop-color="white" stop-opacity="0"/>
</linearGradient>
<linearGradient id="paint13_linear_19233_6524" x1="18.1622" y1="53.1203" x2="21.3794" y2="53.1203" gradientUnits="userSpaceOnUse">
<stop offset="0.2888" stop-color="white"/>
<stop offset="0.7796" stop-color="white" stop-opacity="0"/>
</linearGradient>
<linearGradient id="paint14_linear_19233_6524" x1="37.2689" y1="47.7697" x2="40.4861" y2="47.7697" gradientUnits="userSpaceOnUse">
<stop offset="0.2888" stop-color="white"/>
<stop offset="0.7796" stop-color="white" stop-opacity="0"/>
</linearGradient>
</defs>
</svg>
