<svg width="284" height="248" viewBox="0 0 284 248" fill="none" xmlns="http://www.w3.org/2000/svg">
<mask id="path-1-inside-1_16001_7070" fill="white">
<path fill-rule="evenodd" clip-rule="evenodd" d="M91.1453 229.488C126.564 249.936 183.989 249.936 219.408 229.488C237.116 219.266 245.97 205.867 245.972 192.469H245.99V174.419H240.438C236.045 167.495 229.035 160.999 219.408 155.441C183.989 134.994 126.564 134.994 91.1453 155.441C81.5188 160.999 74.5088 167.495 70.115 174.419H64.5641V192.469H64.5812C64.5829 205.867 73.4376 219.266 91.1453 229.488Z"/>
</mask>
<path fill-rule="evenodd" clip-rule="evenodd" d="M91.1453 229.488C126.564 249.936 183.989 249.936 219.408 229.488C237.116 219.266 245.97 205.867 245.972 192.469H245.99V174.419H240.438C236.045 167.495 229.035 160.999 219.408 155.441C183.989 134.994 126.564 134.994 91.1453 155.441C81.5188 160.999 74.5088 167.495 70.115 174.419H64.5641V192.469H64.5812C64.5829 205.867 73.4376 219.266 91.1453 229.488Z" fill="#161627"/>
<path d="M219.408 229.488L219.908 230.354L219.408 229.488ZM91.1453 229.488L90.6453 230.354H90.6453L91.1453 229.488ZM245.972 192.469V191.469H244.972L244.972 192.469L245.972 192.469ZM245.99 192.469V193.469H246.99V192.469H245.99ZM245.99 174.419H246.99V173.419H245.99V174.419ZM240.438 174.419L239.594 174.955L239.889 175.419H240.438V174.419ZM219.408 155.441L219.908 154.575L219.408 155.441ZM91.1453 155.441L91.6453 156.307L91.1453 155.441ZM70.115 174.419V175.419H70.6648L70.9594 174.955L70.115 174.419ZM64.5641 174.419V173.419H63.5641V174.419H64.5641ZM64.5641 192.469H63.5641V193.469H64.5641V192.469ZM64.5812 192.469L65.5812 192.469L65.581 191.469H64.5812V192.469ZM218.908 228.622C201.387 238.738 178.359 243.824 155.277 243.824C132.195 243.824 109.167 238.738 91.6453 228.622L90.6453 230.354C108.542 240.687 131.937 245.824 155.277 245.824C178.617 245.824 202.011 240.687 219.908 230.354L218.908 228.622ZM244.972 192.469C244.971 205.384 236.434 218.505 218.908 228.622L219.908 230.354C237.798 220.027 246.97 206.351 246.972 192.469L244.972 192.469ZM245.99 191.469H245.972V193.469H245.99V191.469ZM244.99 174.419V192.469H246.99V174.419H244.99ZM240.438 175.419H245.99V173.419H240.438V175.419ZM218.908 156.307C228.429 161.804 235.306 168.196 239.594 174.955L241.283 173.883C236.784 166.793 229.64 160.194 219.908 154.575L218.908 156.307ZM91.6453 156.307C109.167 146.192 132.195 141.106 155.277 141.106C178.359 141.106 201.387 146.192 218.908 156.307L219.908 154.575C202.011 144.243 178.617 139.106 155.277 139.106C131.937 139.106 108.542 144.243 90.6453 154.575L91.6453 156.307ZM70.9594 174.955C75.2479 168.196 82.1247 161.804 91.6453 156.307L90.6453 154.575C80.913 160.194 73.7696 166.793 69.2707 173.883L70.9594 174.955ZM64.5641 175.419H70.115V173.419H64.5641V175.419ZM65.5641 192.469V174.419H63.5641V192.469H65.5641ZM64.5812 191.469H64.5641V193.469H64.5812V191.469ZM91.6453 228.622C74.1197 218.505 65.5828 205.384 65.5812 192.469L63.5812 192.469C63.583 206.351 72.7555 220.027 90.6453 230.354L91.6453 228.622Z" fill="white" mask="url(#path-1-inside-1_16001_7070)"/>
<circle cx="74.0512" cy="74.0512" r="73.5512" transform="matrix(0.866041 0.499972 -0.866041 0.499972 155.277 99.9055)" fill="white" stroke="white"/>
<path fill-rule="evenodd" clip-rule="evenodd" d="M185.291 156.945C186.466 157.623 188.07 157.913 189.6 157.807C190.726 157.736 191.815 157.447 192.672 156.952C193.798 156.302 194.306 155.429 194.172 154.574C194.08 153.885 193.578 153.207 192.672 152.684C191.766 152.161 190.597 151.867 189.398 151.818C187.929 151.747 186.417 152.041 185.291 152.691C184.434 153.185 183.932 153.814 183.797 154.457C183.614 155.341 184.11 156.263 185.291 156.945ZM199.522 157.851L193.699 160.258C198.679 164.822 201.143 170.182 200.692 175.57L207.813 175.97C208.402 169.584 205.482 163.229 199.522 157.851ZM153.038 148.059L152.352 143.952C163.419 143.615 174.431 145.296 183.738 148.739L179.568 152.101C171.676 149.226 162.388 147.809 153.044 148.063L153.038 148.059ZM130.939 196.489L126.77 199.851C136.085 203.292 147.093 204.978 158.155 204.638L157.462 200.526C148.129 200.787 138.845 199.365 130.939 196.489ZM109.81 173.017L102.694 172.62C102.105 179.007 105.019 185.365 110.986 190.739L116.809 188.332C111.828 183.775 109.371 178.412 109.81 173.017ZM125.191 191.641C126.146 192.192 126.654 192.909 126.697 193.641L126.703 193.644C126.771 194.46 126.269 195.287 125.191 195.909C124.316 196.414 123.215 196.704 122.052 196.768C120.54 196.863 118.967 196.57 117.81 195.902C116.653 195.234 116.145 194.326 116.311 193.453C116.427 192.793 116.935 192.153 117.81 191.648C118.887 191.026 120.32 190.736 121.727 190.772C123.006 190.796 124.237 191.09 125.191 191.641ZM179.417 201.519L176.47 197.77C184.747 195.247 191.549 191.32 195.845 186.528L202.359 188.225C197.306 193.913 189.251 198.577 179.417 201.519ZM173.518 201.431C173.476 200.7 172.968 199.983 172.013 199.432C171.058 198.88 169.828 198.587 168.549 198.562C167.141 198.527 165.709 198.817 164.632 199.439C163.756 199.944 163.248 200.583 163.132 201.244C162.967 202.117 163.475 203.025 164.632 203.693C165.788 204.361 167.361 204.654 168.873 204.559C170.036 204.495 171.138 204.205 172.013 203.7C173.09 203.078 173.592 202.251 173.525 201.435L173.518 201.431ZM206.172 179.711C207.126 180.263 207.634 180.98 207.677 181.711L207.683 181.715C207.751 182.531 207.249 183.358 206.172 183.98C205.296 184.485 204.195 184.775 203.032 184.838C201.52 184.934 199.947 184.64 198.79 183.973C197.634 183.305 197.126 182.397 197.291 181.524C197.407 180.863 197.915 180.224 198.79 179.718C199.868 179.097 201.3 178.807 202.707 178.842C203.987 178.867 205.217 179.16 206.172 179.711ZM114.588 162.045L108.093 160.344C113.189 154.666 121.268 150.016 131.121 147.099L134.061 150.859C125.76 153.34 118.958 157.267 114.588 162.045ZM111.701 164.613C112.656 165.164 113.164 165.882 113.207 166.613L113.213 166.617C113.28 167.433 112.778 168.26 111.701 168.881C110.826 169.387 109.724 169.676 108.561 169.74C107.05 169.835 105.477 169.542 104.32 168.874C103.163 168.207 102.655 167.298 102.82 166.426C102.937 165.765 103.445 165.125 104.32 164.62C105.397 163.998 106.829 163.709 108.237 163.744C109.516 163.769 110.746 164.062 111.701 164.613ZM147.365 146.893C147.322 146.161 146.814 145.444 145.86 144.893C144.905 144.342 143.675 144.048 142.395 144.024C140.988 143.988 139.555 144.278 138.478 144.9C137.603 145.405 137.095 146.045 136.979 146.705C136.814 147.578 137.322 148.486 138.478 149.154C139.635 149.822 141.208 150.115 142.72 150.02C143.883 149.956 144.984 149.666 145.86 149.161C146.937 148.539 147.439 147.712 147.371 146.896L147.365 146.893ZM147.705 173.579C147.556 173.262 147.711 172.924 148.111 172.693L152.474 170.175C152.874 169.944 153.452 169.851 154.008 169.941L160.01 170.887C160.56 170.973 160.995 171.225 161.139 171.538L162.79 175.011C162.934 175.325 162.785 175.665 162.385 175.896L158.022 178.415C157.622 178.646 157.031 178.732 156.488 178.649L150.473 177.696C149.93 177.613 149.5 177.365 149.345 177.044L147.705 173.579ZM141.14 185.303C141.097 184.571 140.589 183.854 139.634 183.303C138.679 182.752 137.449 182.458 136.17 182.434C134.762 182.398 133.33 182.688 132.253 183.31C131.378 183.815 130.87 184.455 130.753 185.115C130.588 185.988 131.096 186.896 132.253 187.564C133.41 188.232 134.983 188.525 136.494 188.43C137.657 188.366 138.759 188.076 139.634 187.571C140.711 186.949 141.213 186.122 141.146 185.306L141.14 185.303ZM178.229 161.022C179.386 161.689 179.893 162.598 179.721 163.474C179.617 164.143 179.108 164.782 178.232 165.288C177.166 165.903 175.733 166.194 174.325 166.159C173.064 166.131 171.815 165.841 170.848 165.283C169.881 164.725 169.392 164.011 169.331 163.275C169.27 162.462 169.785 161.642 170.851 161.027C171.727 160.521 172.829 160.231 173.98 160.16C175.499 160.061 177.072 160.354 178.229 161.022ZM184.312 168.189L177.856 169.887C183.924 180.497 165.974 190.852 147.609 187.349L144.668 191.076C168.993 196.085 192.988 182.218 184.312 168.189ZM162.886 161.245L165.827 157.518C141.526 152.509 117.507 166.361 126.183 180.405L132.639 178.707C126.571 168.104 144.509 157.742 162.886 161.245Z" fill="#161627"/>
<mask id="path-5-inside-2_16001_7070" fill="white">
<path fill-rule="evenodd" clip-rule="evenodd" d="M64.5891 203.286C100.008 223.734 157.433 223.734 192.852 203.286C210.56 193.063 219.414 179.665 219.416 166.266H219.433V148.216H213.882C209.488 141.292 202.478 134.796 192.852 129.239C157.433 108.791 100.008 108.791 64.5891 129.239C54.9627 134.796 47.9526 141.292 43.5589 148.216H38.0079V166.266H38.025C38.0267 179.665 46.8814 193.063 64.5891 203.286Z"/>
</mask>
<path fill-rule="evenodd" clip-rule="evenodd" d="M64.5891 203.286C100.008 223.734 157.433 223.734 192.852 203.286C210.56 193.063 219.414 179.665 219.416 166.266H219.433V148.216H213.882C209.488 141.292 202.478 134.796 192.852 129.239C157.433 108.791 100.008 108.791 64.5891 129.239C54.9627 134.796 47.9526 141.292 43.5589 148.216H38.0079V166.266H38.025C38.0267 179.665 46.8814 193.063 64.5891 203.286Z" fill="#161627"/>
<path d="M192.852 203.286L192.352 202.42L192.852 203.286ZM64.5891 203.286L64.0891 204.152L64.5891 203.286ZM219.416 166.266V165.266H218.416L218.416 166.266L219.416 166.266ZM219.433 166.266V167.266H220.433V166.266H219.433ZM219.433 148.216H220.433V147.216H219.433V148.216ZM213.882 148.216L213.038 148.752L213.332 149.216H213.882V148.216ZM192.852 129.239L192.352 130.105L192.852 129.239ZM64.5891 129.239L64.0891 128.373L64.5891 129.239ZM43.5589 148.216V149.216H44.1087L44.4032 148.752L43.5589 148.216ZM38.0079 148.216V147.216H37.0079V148.216H38.0079ZM38.0079 166.266H37.0079V167.266H38.0079V166.266ZM38.025 166.266L39.025 166.266L39.0249 165.266H38.025V166.266ZM192.352 202.42C174.83 212.535 151.803 217.622 128.721 217.622C105.639 217.622 82.6107 212.535 65.0891 202.42L64.0891 204.152C81.9863 214.484 105.381 219.622 128.721 219.622C152.061 219.622 175.455 214.484 193.352 204.152L192.352 202.42ZM218.416 166.266C218.414 179.182 209.878 192.302 192.352 202.42L193.352 204.152C211.242 193.824 220.414 180.148 220.416 166.267L218.416 166.266ZM219.433 165.266H219.416V167.266H219.433V165.266ZM218.433 148.216V166.266H220.433V148.216H218.433ZM213.882 149.216H219.433V147.216H213.882V149.216ZM192.352 130.105C201.872 135.601 208.749 141.994 213.038 148.752L214.727 147.681C210.228 140.591 203.084 133.991 193.352 128.373L192.352 130.105ZM65.0891 130.105C82.6107 119.99 105.639 114.903 128.721 114.903C151.803 114.903 174.83 119.99 192.352 130.105L193.352 128.373C175.455 118.041 152.061 112.903 128.721 112.903C105.381 112.903 81.9863 118.041 64.0891 128.373L65.0891 130.105ZM44.4032 148.752C48.6917 141.994 55.5685 135.601 65.0891 130.105L64.0891 128.373C54.3568 133.991 47.2135 140.591 42.7145 147.681L44.4032 148.752ZM38.0079 149.216H43.5589V147.216H38.0079V149.216ZM39.0079 166.266V148.216H37.0079V166.266H39.0079ZM38.025 165.266H38.0079V167.266H38.025V165.266ZM65.0891 202.42C47.5636 192.302 39.0267 179.182 39.025 166.266L37.025 166.267C37.0268 180.148 46.1993 193.824 64.0891 204.152L65.0891 202.42Z" fill="white" mask="url(#path-5-inside-2_16001_7070)"/>
<circle cx="74.0512" cy="74.0512" r="73.5512" transform="matrix(0.866041 0.499972 -0.866041 0.499972 128.722 73.7026)" fill="white" stroke="white"/>
<path fill-rule="evenodd" clip-rule="evenodd" d="M159.146 130.443C160.321 131.122 161.925 131.412 163.455 131.306C164.581 131.235 165.67 130.945 166.527 130.451C167.653 129.8 168.161 128.928 168.027 128.073C167.935 127.384 167.433 126.705 166.527 126.182C165.621 125.659 164.452 125.366 163.253 125.317C161.784 125.246 160.272 125.539 159.146 126.189C158.289 126.684 157.787 127.313 157.652 127.956C157.469 128.839 157.965 129.762 159.146 130.443ZM173.377 131.35L167.554 133.757C172.534 138.321 174.998 143.681 174.547 149.068L181.668 149.469C182.257 143.082 179.337 136.728 173.377 131.35ZM126.893 121.558L126.207 117.451C137.274 117.113 148.286 118.795 157.593 122.238L153.423 125.599C145.531 122.725 136.243 121.307 126.899 121.561L126.893 121.558ZM104.794 169.988L100.625 173.35C109.94 176.79 120.948 178.476 132.01 178.136L131.317 174.025C121.984 174.285 112.7 172.863 104.794 169.988ZM83.6646 146.516L76.549 146.119C75.9601 152.505 78.8743 158.863 84.8406 164.238L90.6636 161.831C85.6828 157.274 83.2258 151.91 83.6646 146.516ZM99.0465 165.139C100.001 165.69 100.509 166.408 100.552 167.139L100.558 167.143C100.626 167.959 100.124 168.786 99.0465 169.408C98.1712 169.913 97.0696 170.203 95.9067 170.266C94.3949 170.362 92.822 170.068 91.6652 169.401C90.5085 168.733 90.0005 167.825 90.1657 166.952C90.282 166.291 90.79 165.652 91.6652 165.146C92.7424 164.524 94.1746 164.235 95.5823 164.27C96.8615 164.295 98.0917 164.588 99.0465 165.139ZM153.272 175.018L150.325 171.268C158.602 168.745 165.404 164.818 169.7 160.026L176.214 161.724C171.161 167.412 163.106 172.076 153.272 175.018ZM147.373 174.93C147.331 174.199 146.823 173.481 145.868 172.93C144.913 172.379 143.683 172.086 142.404 172.061C140.996 172.026 139.564 172.315 138.487 172.937C137.611 173.442 137.103 174.082 136.987 174.743C136.822 175.615 137.33 176.524 138.487 177.191C139.643 177.859 141.216 178.152 142.728 178.057C143.891 177.993 144.993 177.704 145.868 177.198C146.945 176.577 147.447 175.75 147.38 174.934L147.373 174.93ZM180.027 153.21C180.981 153.761 181.489 154.478 181.532 155.21L181.538 155.213C181.606 156.03 181.104 156.856 180.027 157.478C179.151 157.983 178.05 158.273 176.887 158.337C175.375 158.432 173.802 158.139 172.645 157.471C171.489 156.803 170.981 155.895 171.146 155.022C171.262 154.362 171.77 153.722 172.645 153.217C173.723 152.595 175.155 152.305 176.562 152.341C177.842 152.365 179.072 152.659 180.027 153.21ZM88.4429 135.544L81.9479 133.843C87.0436 128.165 95.1227 123.515 104.976 120.598L107.916 124.358C99.6152 126.838 92.813 130.765 88.4429 135.544ZM85.5562 138.112C86.511 138.663 87.019 139.38 87.0618 140.112L87.068 140.115C87.1353 140.931 86.6334 141.758 85.5562 142.38C84.681 142.885 83.5793 143.175 82.4164 143.239C80.9047 143.334 79.3317 143.041 78.175 142.373C77.0182 141.705 76.5102 140.797 76.6755 139.924C76.7918 139.263 77.2998 138.624 78.175 138.119C79.2522 137.497 80.6843 137.207 82.092 137.242C83.3712 137.267 84.6014 137.56 85.5562 138.112ZM121.22 120.391C121.177 119.66 120.669 118.943 119.715 118.391C118.76 117.84 117.53 117.547 116.25 117.522C114.843 117.487 113.41 117.777 112.333 118.398C111.458 118.904 110.95 119.543 110.834 120.204C110.669 121.077 111.177 121.985 112.333 122.653C113.49 123.32 115.063 123.614 116.575 123.518C117.738 123.455 118.839 123.165 119.715 122.66C120.792 122.038 121.294 121.211 121.226 120.395L121.22 120.391ZM121.56 147.077C121.411 146.76 121.566 146.423 121.966 146.192L126.329 143.673C126.729 143.442 127.307 143.349 127.863 143.439L133.865 144.385C134.415 144.472 134.85 144.723 134.994 145.037L136.645 148.509C136.789 148.823 136.64 149.164 136.24 149.395L131.877 151.914C131.477 152.145 130.886 152.231 130.343 152.148L124.328 151.194C123.785 151.111 123.355 150.864 123.2 150.543L121.56 147.077ZM114.995 158.801C114.952 158.07 114.444 157.353 113.489 156.801C112.534 156.25 111.304 155.957 110.025 155.932C108.617 155.897 107.185 156.187 106.108 156.808C105.233 157.314 104.725 157.953 104.608 158.614C104.443 159.487 104.951 160.395 106.108 161.063C107.265 161.73 108.838 162.024 110.349 161.928C111.512 161.865 112.614 161.575 113.489 161.07C114.566 160.448 115.068 159.621 115.001 158.805L114.995 158.801ZM152.084 134.52C153.241 135.188 153.748 136.096 153.576 136.973C153.472 137.641 152.963 138.281 152.087 138.787C151.021 139.402 149.588 139.692 148.18 139.657C146.919 139.629 145.67 139.34 144.703 138.781C143.736 138.223 143.247 137.509 143.186 136.774C143.125 135.961 143.64 135.141 144.706 134.525C145.582 134.02 146.684 133.73 147.835 133.659C149.354 133.559 150.927 133.852 152.084 134.52ZM158.167 141.688L151.711 143.386C157.779 153.995 139.829 164.351 121.464 160.847L118.523 164.575C142.848 169.583 166.843 155.717 158.167 141.688ZM136.741 134.744L139.682 131.017C115.381 126.008 91.3625 139.86 100.038 153.903L106.494 152.205C100.426 141.603 118.364 131.24 136.741 134.744Z" fill="#161627"/>
<mask id="path-9-inside-3_16001_7070" fill="white">
<path fill-rule="evenodd" clip-rule="evenodd" d="M67.651 84.7762C76.8522 124.625 116.016 166.623 155.126 178.582C174.679 184.56 190.517 181.899 200.317 172.762L200.329 172.775L213.53 160.465L209.744 156.405C211.812 148.469 211.781 138.912 209.281 128.082C200.08 88.2328 160.916 46.2347 121.806 34.2762C111.176 31.0261 101.645 30.3294 93.584 31.8383L89.7981 27.7784L76.5972 40.0884L76.6089 40.101C66.8109 49.2401 63.0509 64.8537 67.651 84.7762Z"/>
</mask>
<path fill-rule="evenodd" clip-rule="evenodd" d="M67.651 84.7762C76.8522 124.625 116.016 166.623 155.126 178.582C174.679 184.56 190.517 181.899 200.317 172.762L200.329 172.775L213.53 160.465L209.744 156.405C211.812 148.469 211.781 138.912 209.281 128.082C200.08 88.2328 160.916 46.2347 121.806 34.2762C111.176 31.0261 101.645 30.3294 93.584 31.8383L89.7981 27.7784L76.5972 40.0884L76.6089 40.101C66.8109 49.2401 63.0509 64.8537 67.651 84.7762Z" fill="#161627"/>
<path d="M155.126 178.582L155.418 177.625L155.126 178.582ZM67.651 84.7762L68.6254 84.5512L67.651 84.7762ZM200.317 172.762L201.049 172.08L200.367 171.349L199.635 172.031L200.317 172.762ZM200.329 172.775L199.598 173.457L200.28 174.188L201.011 173.506L200.329 172.775ZM213.53 160.465L214.212 161.196L214.943 160.514L214.261 159.783L213.53 160.465ZM209.744 156.405L208.776 156.153L208.638 156.685L209.013 157.087L209.744 156.405ZM209.281 128.082L208.306 128.307L209.281 128.082ZM121.806 34.2762L121.513 35.2325L121.806 34.2762ZM93.584 31.8383L92.8527 32.5203L93.2276 32.9224L93.768 32.8212L93.584 31.8383ZM89.7981 27.7784L90.5295 27.0964L89.8475 26.365L89.1161 27.047L89.7981 27.7784ZM76.5972 40.0884L75.9152 39.3571L75.1838 40.0391L75.8658 40.7704L76.5972 40.0884ZM76.6089 40.101L77.291 40.8323L78.0222 40.1503L77.3403 39.419L76.6089 40.101ZM155.418 177.625C136.071 171.71 116.646 158.337 100.904 141.456C85.1622 124.575 73.1772 104.264 68.6254 84.5512L66.6767 85.0012C71.3261 105.137 83.5236 125.75 99.4414 142.82C115.359 159.89 135.071 173.495 154.834 179.538L155.418 177.625ZM199.635 172.031C190.189 180.838 174.771 183.543 155.418 177.625L154.834 179.538C174.588 185.578 190.846 182.96 200.999 173.493L199.635 172.031ZM201.06 172.093L201.049 172.08L199.586 173.444L199.598 173.457L201.06 172.093ZM212.848 159.733L199.647 172.043L201.011 173.506L214.212 161.196L212.848 159.733ZM209.013 157.087L212.799 161.147L214.261 159.783L210.475 155.723L209.013 157.087ZM208.306 128.307C210.78 139.018 210.794 148.407 208.776 156.153L210.712 156.657C212.829 148.531 212.783 138.806 210.255 127.857L208.306 128.307ZM121.513 35.2325C140.861 41.1483 160.286 54.521 176.028 71.4021C191.77 88.2832 203.755 108.594 208.306 128.307L210.255 127.857C205.606 107.721 193.408 87.1079 177.49 70.0381C161.573 52.9683 141.86 39.3626 122.098 33.3199L121.513 35.2325ZM93.768 32.8212C101.636 31.3484 111.001 32.0181 121.513 35.2325L122.098 33.3199C111.352 30.034 101.654 29.3103 93.4 30.8553L93.768 32.8212ZM89.0668 28.4604L92.8527 32.5203L94.3154 31.1563L90.5295 27.0964L89.0668 28.4604ZM77.2792 40.8198L90.4801 28.5097L89.1161 27.047L75.9152 39.3571L77.2792 40.8198ZM77.3403 39.419L77.3285 39.4064L75.8658 40.7704L75.8776 40.783L77.3403 39.419ZM68.6254 84.5512C64.0726 64.8336 67.8463 49.6418 77.291 40.8323L75.9268 39.3698C65.7755 48.8384 62.0292 64.8737 66.6767 85.0012L68.6254 84.5512Z" fill="white" mask="url(#path-9-inside-3_16001_7070)"/>
<circle cx="74.0512" cy="74.0512" r="73.5512" transform="matrix(0.224982 0.974363 -0.956295 -0.292402 206.161 43.3052)" fill="white" stroke="white"/>
<path fill-rule="evenodd" clip-rule="evenodd" d="M185.412 104.252C185.718 105.575 186.599 106.945 187.72 107.992C188.54 108.767 189.495 109.366 190.441 109.656C191.685 110.036 192.669 109.812 193.203 109.13C193.644 108.593 193.798 107.764 193.563 106.745C193.327 105.725 192.745 104.67 191.963 103.759C191.013 102.637 189.767 101.731 188.524 101.351C187.577 101.062 186.775 101.124 186.213 101.464C185.442 101.932 185.105 102.923 185.412 104.252ZM194.455 115.278L188.723 112.661C188.782 119.417 186.542 124.874 182.294 128.218L186.858 133.7C191.931 129.775 194.587 123.305 194.455 115.278ZM169.915 74.6045L172.45 71.3014C180.245 79.1653 186.525 88.3653 190.354 97.5202L185.052 96.7634C181.772 89.0314 176.474 81.2712 169.916 74.6114L169.915 74.6045ZM119.423 91.4716L114.121 90.715C117.958 99.8745 124.232 109.075 132.026 116.934L134.559 113.622C128.004 106.975 122.712 99.2147 119.423 91.4716ZM122.18 60.0099L117.618 54.5352C112.545 58.46 109.882 64.9278 110.021 72.9565L115.752 75.5736C115.688 68.8229 117.935 63.3681 122.18 60.0099ZM119.05 83.961C119.298 85.0352 119.12 85.8959 118.614 86.4261L118.615 86.4329C118.064 87.0388 117.117 87.2357 115.928 86.872C114.962 86.5765 113.998 85.9684 113.159 85.1613C112.058 84.1207 111.2 82.7703 110.899 81.4689C110.599 80.1674 110.916 79.1766 111.667 78.7022C112.23 78.3367 113.044 78.272 114.011 78.5675C115.2 78.9312 116.389 79.781 117.323 80.8347C118.177 81.7871 118.802 82.8868 119.05 83.961ZM148.806 130.356L149.539 125.644C157.029 129.976 164.54 132.273 170.975 132.147L174.176 138.068C166.57 138.252 157.665 135.542 148.806 130.356ZM144.848 125.982C145.354 125.452 145.532 124.591 145.284 123.517C145.036 122.443 144.411 121.343 143.557 120.391C142.623 119.337 141.434 118.487 140.245 118.124C139.278 117.828 138.464 117.893 137.902 118.258C137.151 118.733 136.833 119.724 137.133 121.025C137.434 122.327 138.292 123.677 139.393 124.717C140.233 125.525 141.196 126.133 142.162 126.428C143.352 126.792 144.299 126.595 144.85 125.989L144.848 125.982ZM183.003 135.05C183.251 136.124 183.072 136.985 182.567 137.515L182.568 137.522C182.017 138.128 181.07 138.325 179.881 137.961C178.914 137.666 177.951 137.058 177.112 136.251C176.011 135.21 175.153 133.86 174.852 132.558C174.552 131.257 174.869 130.266 175.62 129.792C176.183 129.426 176.997 129.361 177.963 129.657C179.153 130.02 180.342 130.87 181.276 131.924C182.13 132.876 182.755 133.976 183.003 135.05ZM133.463 56.022L130.278 50.1118C137.905 49.9663 146.816 52.7037 155.669 57.9204L154.924 62.6354C147.449 58.2561 139.938 55.9595 133.463 56.022ZM129.616 55.6621C129.864 56.7363 129.686 57.597 129.18 58.1272L129.182 58.134C128.631 58.7399 127.684 58.9368 126.495 58.5731C125.528 58.2776 124.565 57.6695 123.725 56.8624C122.624 55.8218 121.766 54.4714 121.466 53.17C121.165 51.8685 121.483 50.8777 122.234 50.4033C122.796 50.0378 123.611 49.9731 124.577 50.2686C125.766 50.6323 126.955 51.4821 127.889 52.5358C128.744 53.4882 129.368 54.5879 129.616 55.6621ZM166.899 69.6597C167.404 69.1296 167.583 68.2689 167.335 67.1947C167.087 66.1205 166.462 65.0207 165.608 64.0683C164.674 63.0147 163.485 62.1649 162.295 61.8012C161.329 61.5057 160.515 61.5703 159.952 61.9359C159.201 62.4103 158.884 63.4011 159.184 64.7025C159.485 66.004 160.343 67.3544 161.444 68.3949C162.283 69.202 163.247 69.8101 164.213 70.1056C165.402 70.4693 166.349 70.2725 166.9 69.6666L166.899 69.6597ZM147.614 88.1085C147.744 87.7827 148.096 87.666 148.538 87.801L153.356 89.2742C153.797 89.4092 154.26 89.7686 154.573 90.2363L157.974 95.2717C158.286 95.7325 158.399 96.2224 158.267 96.5413L156.854 100.117C156.723 100.436 156.372 100.56 155.93 100.425L151.112 98.9517C150.671 98.8166 150.205 98.4434 149.895 97.9895L146.491 92.9403C146.181 92.4864 146.069 92.0034 146.197 91.6707L147.614 88.1085ZM134.562 91.3024C135.067 90.7722 135.246 89.9115 134.998 88.8373C134.749 87.7631 134.125 86.6634 133.271 85.711C132.336 84.6574 131.148 83.8075 129.958 83.4438C128.992 83.1483 128.178 83.213 127.615 83.5786C126.864 84.0529 126.547 85.0437 126.847 86.3452C127.148 87.6466 128.006 88.997 129.107 90.0376C129.946 90.8447 130.909 91.4528 131.876 91.7483C133.065 92.112 134.012 91.9152 134.563 91.3093L134.562 91.3024ZM177.615 101.868C177.915 103.17 177.597 104.16 176.838 104.632C176.279 105.012 175.464 105.076 174.496 104.78C173.319 104.42 172.13 103.57 171.195 102.516C170.355 101.575 169.715 100.464 169.464 99.3761C169.213 98.2881 169.401 97.4434 169.898 96.8975C170.451 96.2987 171.402 96.1159 172.579 96.4758C173.546 96.7715 174.51 97.3799 175.347 98.1734C176.455 99.2162 177.314 100.567 177.615 101.868ZM176.521 111.205L170.876 107.641C167.256 119.315 147.44 113.25 137.477 97.4291L132.746 97.82C145.672 119.026 172.178 127.118 176.521 111.205ZM166.987 90.7994L171.719 90.4085C158.809 69.2199 132.297 61.1008 127.944 77.0235L133.588 80.5871C137.204 68.9181 157.016 74.9696 166.987 90.7994Z" fill="#161627"/>
</svg>
