<svg width="248" height="248" viewBox="0 0 248 248" fill="none" xmlns="http://www.w3.org/2000/svg">
<mask id="path-1-inside-1_16001_6762" fill="white">
<path d="M149.772 0L247.133 56.2157L247.135 109.12L149.774 52.9043L149.772 0Z"/>
</mask>
<path d="M149.772 0L247.133 56.2157L247.135 109.12L149.774 52.9043L149.772 0Z" fill="#161627"/>
<path d="M149.772 0L149.772 -1L149.339 -1.25001L149.339 -0.250014L149.772 0ZM247.133 56.2157L247.999 56.7158L247.999 55.7158L247.133 55.2157L247.133 56.2157ZM247.135 109.12L247.135 110.12L248.001 110.62L248.001 109.62L247.135 109.12ZM149.774 52.9043L149.341 52.6543L149.341 53.6543L149.774 53.9043L149.774 52.9043ZM149.772 1L247.133 57.2157L247.133 55.2157L149.772 -1L149.772 1ZM246.267 55.7157L246.269 108.62L248.001 109.62L247.999 56.7158L246.267 55.7157ZM247.135 108.12L149.774 51.9043L149.774 53.9043L247.135 110.12L247.135 108.12ZM150.207 53.1543L150.205 0.250014L149.339 -0.250014L149.341 52.6543L150.207 53.1543Z" fill="white" mask="url(#path-1-inside-1_16001_6762)"/>
<mask id="path-3-inside-2_16001_6762" fill="white">
<path d="M0.863037 85.978L149.77 0.000175768L149.768 52.9045L0.861353 138.882L0.863037 85.978Z"/>
</mask>
<path d="M0.863037 85.978L149.77 0.000175768L149.768 52.9045L0.861353 138.882L0.863037 85.978Z" fill="#161627"/>
<path d="M0.863037 85.978L0.863069 84.978L-0.00294059 85.4781L-0.00297242 86.4781L0.863037 85.978ZM149.77 0.000175768L150.203 -0.249838L150.203 -1.24984L149.77 -0.999824L149.77 0.000175768ZM149.768 52.9045L149.768 53.9045L150.201 53.6545L150.201 52.6545L149.768 52.9045ZM0.861353 138.882L-0.00465664 139.382L-0.00468847 140.382L0.861321 139.882L0.861353 138.882ZM0.863005 86.978L149.77 1.00018L149.77 -0.999824L0.863069 84.978L0.863005 86.978ZM149.337 0.25019L149.335 53.1545L150.201 52.6545L150.203 -0.249838L149.337 0.25019ZM149.768 51.9045L0.861385 137.882L0.861321 139.882L149.768 53.9045L149.768 51.9045ZM1.72736 138.382L1.72905 85.478L-0.00297242 86.4781L-0.00465664 139.382L1.72736 138.382Z" fill="white" mask="url(#path-3-inside-2_16001_6762)"/>
<mask id="path-5-inside-3_16001_6762" fill="white">
<path d="M0.862061 138.88L98.2234 195.096L98.2251 248L0.863745 191.784L0.862061 138.88Z"/>
</mask>
<path d="M0.862061 138.88L98.2234 195.096L98.2251 248L0.863745 191.784L0.862061 138.88Z" fill="#161627"/>
<path d="M0.862061 138.88L0.862045 138.38L-0.0039649 137.88L-0.00394899 138.38L0.862061 138.88ZM98.2234 195.096L98.6564 195.346L98.6564 194.846L98.2234 194.596L98.2234 195.096ZM98.2251 248L98.2251 249L98.6581 249.25L98.6581 248.25L98.2251 248ZM0.863745 191.784L-0.00226477 191.284L-0.00223294 192.284L0.863777 192.784L0.863745 191.784ZM0.862076 139.38L98.2234 195.596L98.2234 194.596L0.862045 138.38L0.862076 139.38ZM97.7904 194.846L97.7921 247.75L98.6581 248.25L98.6564 195.346L97.7904 194.846ZM98.2251 247L0.863713 190.784L0.863777 192.784L98.2251 249L98.2251 247ZM1.72975 192.284L1.72807 139.38L-0.00394899 138.38L-0.00226477 191.284L1.72975 192.284Z" fill="white" mask="url(#path-5-inside-3_16001_6762)"/>
<mask id="path-7-inside-4_16001_6762" fill="white">
<path d="M98.2256 195.094L247.133 109.116L247.131 162.02L98.2239 247.998L98.2256 195.094Z"/>
</mask>
<path d="M98.2256 195.094L247.133 109.116L247.131 162.02L98.2239 247.998L98.2256 195.094Z" fill="#161627"/>
<path d="M98.2256 195.094L98.2256 194.594L97.7926 194.844L97.7926 195.344L98.2256 195.094ZM247.133 109.116L247.999 108.616L247.999 108.116L247.133 108.616L247.133 109.116ZM247.131 162.02L247.131 163.02L247.997 162.52L247.997 161.52L247.131 162.02ZM98.2239 247.998L97.7909 248.248L97.7909 249.248L98.2239 248.998L98.2239 247.998ZM98.2256 195.594L247.133 109.616L247.133 108.616L98.2256 194.594L98.2256 195.594ZM246.267 109.616L246.265 162.52L247.997 161.52L247.999 108.616L246.267 109.616ZM247.131 161.02L98.2239 246.998L98.2239 248.998L247.131 163.02L247.131 161.02ZM98.6569 247.748L98.6586 194.844L97.7926 195.344L97.7909 248.248L98.6569 247.748Z" fill="white" mask="url(#path-7-inside-4_16001_6762)"/>
<rect width="171.946" height="112.425" transform="matrix(0.866041 -0.499972 0.866041 0.499972 0.862061 138.883)" fill="white"/>
<mask id="path-10-inside-5_16001_6762" fill="white">
<path d="M0.862061 85.9746L98.2234 142.19L98.2251 195.095L0.863745 138.879L0.862061 85.9746Z"/>
</mask>
<path d="M0.862061 85.9746L98.2234 142.19L98.2251 195.095L0.863745 138.879L0.862061 85.9746Z" fill="#161627"/>
<path d="M0.862061 85.9746L0.862029 84.9746L-0.00398082 84.4746L-0.00394899 85.4746L0.862061 85.9746ZM98.2234 142.19L98.6564 142.44L98.6564 141.44L98.2234 141.19L98.2234 142.19ZM98.2251 195.095L98.2251 195.595L98.6581 195.845L98.6581 195.345L98.2251 195.095ZM0.863745 138.879L-0.00226477 138.379L-0.00224886 138.879L0.863761 139.379L0.863745 138.879ZM0.862092 86.9746L98.2234 143.19L98.2234 141.19L0.862029 84.9746L0.862092 86.9746ZM97.7904 141.94L97.7921 194.845L98.6581 195.345L98.6564 142.44L97.7904 141.94ZM98.2251 194.595L0.863729 138.379L0.863761 139.379L98.2251 195.595L98.2251 194.595ZM1.72975 139.379L1.72807 86.4746L-0.00394899 85.4746L-0.00226477 138.379L1.72975 139.379Z" fill="white" mask="url(#path-10-inside-5_16001_6762)"/>
<mask id="path-12-inside-6_16001_6762" fill="white">
<path d="M98.2256 142.192L247.133 56.2145L247.131 109.119L98.2239 195.097L98.2256 142.192Z"/>
</mask>
<path d="M98.2256 142.192L247.133 56.2145L247.131 109.119L98.2239 195.097L98.2256 142.192Z" fill="#161627"/>
<path d="M98.2256 142.192L98.2256 141.192L97.7926 141.442L97.7926 142.442L98.2256 142.192ZM247.133 56.2145L247.999 55.7145L247.999 54.7145L247.133 55.2145L247.133 56.2145ZM247.131 109.119L247.131 109.619L247.997 109.119L247.997 108.619L247.131 109.119ZM98.2239 195.097L97.7909 195.347L97.7909 195.847L98.2239 195.597L98.2239 195.097ZM98.2256 143.192L247.133 57.2145L247.133 55.2145L98.2256 141.192L98.2256 143.192ZM246.267 56.7146L246.265 109.619L247.997 108.619L247.999 55.7145L246.267 56.7146ZM247.131 108.619L98.2239 194.597L98.2239 195.597L247.131 109.619L247.131 108.619ZM98.6569 194.847L98.6586 141.942L97.7926 142.442L97.7909 195.347L98.6569 194.847Z" fill="white" mask="url(#path-12-inside-6_16001_6762)"/>
</svg>
