<svg width="394" height="290" viewBox="0 0 394 290" fill="none" xmlns="http://www.w3.org/2000/svg">
<path d="M203.325 78.8204C240.993 91.0594 276.281 110.523 300.556 134.377L301.703 135.515C314.913 148.763 323.341 161.947 327.27 174.32L327.36 174.604L336.259 177.495L328.039 202.794L328.01 202.785L327.832 203.335C321.657 222.328 301.48 236.935 268.418 242.571L266.834 242.833C232.847 248.265 192.185 243.308 153.92 230.874C116.252 218.635 80.9646 199.172 56.6898 175.319L55.5422 174.18C31.2288 149.797 23.1436 125.668 29.4104 106.372L29.589 105.822L29.5612 105.813L37.7812 80.5141L46.6797 83.4054L46.919 83.2285C57.0437 75.7691 71.0316 70.1745 88.6906 67.1474L90.4117 66.8626C124.399 61.4298 165.06 66.3873 203.325 78.8204Z" fill="#001347" stroke="white" stroke-width="1.15596"/>
<path d="M212.116 51.7413C249.784 63.9803 285.072 83.4443 309.347 107.297L310.494 108.436C334.81 132.822 342.895 156.952 336.624 176.25C330.452 195.246 310.274 209.855 277.209 215.492L275.625 215.753C241.638 221.186 200.976 216.229 162.711 203.795C125.043 191.556 89.7548 172.092 65.4799 148.239L64.3323 147.1C40.0166 122.715 31.9331 98.5845 38.2032 79.287C44.3753 60.291 64.5525 45.6816 97.6176 40.0447L99.2017 39.7831C133.189 34.3502 173.85 39.3081 212.116 51.7413Z" fill="#001347" stroke="white" stroke-width="1.15596"/>
<path d="M127.528 146.563C152.186 165.759 189.463 178.194 221.036 177.902L221.039 177.905L227.944 183.955C191.057 185.096 146.471 170.242 118.18 147.177L127.528 146.563ZM270.929 122.751C290.085 147.276 283.321 170.34 254.605 179.687L249.208 173.398C272.601 164.901 278.236 145.602 263.094 124.887L263.096 124.883L270.929 122.751ZM126.84 80.6064C101.669 88.6994 95.2411 108.537 110.875 129.879L110.873 129.883L103.056 132.021C83.3072 106.787 90.9871 83.1005 121.763 74.2768L126.84 80.6064ZM142.944 70.8862C180.429 68.7964 226.745 83.8547 255.824 107.593L246.476 108.2C221.106 88.4174 182.322 75.8051 150.153 76.88L150.154 76.8758L142.944 70.8862Z" fill="white"/>
<path d="M209.238 131.348L275.696 113.2L196.304 118.371L200.318 86.3762L184.768 114.602L123.406 63.6127L166.623 117.503L106.802 101.328L164.741 123.417L98.2882 141.564L177.684 136.392L173.669 168.391L189.013 140.528L274.264 214.96L208.138 137.471L267.185 153.44L209.233 131.348L209.238 131.348ZM185.448 131.574L143.823 134.288L172.627 126.421L178.8 124.735L155.961 96.2572L182.662 118.443L188.387 123.202L195.762 122.722L230.174 120.478L195.328 129.991L230.706 171.216L185.449 131.57L185.448 131.574Z" fill="#01D7EB"/>
</svg>
