<svg width="224" height="147" viewBox="0 0 224 147" fill="none" xmlns="http://www.w3.org/2000/svg">
<mask id="path-1-inside-1_16001_6975" fill="white">
<path fill-rule="evenodd" clip-rule="evenodd" d="M15.9375 99.2818L170.048 10.2993L170.048 35.2232L168.605 36.0562C176.736 35.9235 184.926 37.2735 191.855 40.1062L208.002 30.7834L208.001 56.6576C208.75 62.8378 205.033 69.1648 196.848 73.8895L81.4546 140.507C66.4593 149.164 42.1469 149.164 27.1516 140.507C19.2557 135.949 15.5174 129.899 15.9368 123.929L15.9375 99.2818Z"/>
</mask>
<path fill-rule="evenodd" clip-rule="evenodd" d="M15.9375 99.2818L170.048 10.2993L170.048 35.2232L168.605 36.0562C176.736 35.9235 184.926 37.2735 191.855 40.1062L208.002 30.7834L208.001 56.6576C208.75 62.8378 205.033 69.1648 196.848 73.8895L81.4546 140.507C66.4593 149.164 42.1469 149.164 27.1516 140.507C19.2557 135.949 15.5174 129.899 15.9368 123.929L15.9375 99.2818Z" fill="#161627"/>
<path d="M170.048 10.2993L171.048 10.2994L171.048 8.56717L169.548 9.43331L170.048 10.2993ZM15.9375 99.2818L15.4375 98.4158L14.9376 98.7044L14.9375 99.2818L15.9375 99.2818ZM170.048 35.2232L170.548 36.0892L171.048 35.8005L171.048 35.2232L170.048 35.2232ZM168.605 36.0562L168.105 35.1902L164.764 37.119L168.621 37.0561L168.605 36.0562ZM191.855 40.1062L191.477 41.0318L191.931 41.2174L192.355 40.9722L191.855 40.1062ZM208.002 30.7834L209.002 30.7834L209.002 29.0512L207.502 29.9173L208.002 30.7834ZM208.001 56.6576L207.001 56.6575V56.718L207.008 56.7779L208.001 56.6576ZM196.848 73.8895L196.349 73.0235L196.848 73.8895ZM81.4546 140.507L81.9546 141.373L81.4546 140.507ZM27.1516 140.507L27.6515 139.641L27.1516 140.507ZM15.9368 123.929L16.9343 123.999L16.9368 123.964L16.9368 123.929L15.9368 123.929ZM169.548 9.43331L15.4375 98.4158L16.4376 100.148L170.548 11.1653L169.548 9.43331ZM171.048 35.2232L171.048 10.2994L169.048 10.2993L169.048 35.2232L171.048 35.2232ZM169.105 36.9222L170.548 36.0892L169.548 34.3572L168.105 35.1902L169.105 36.9222ZM168.621 37.0561C176.64 36.9252 184.692 38.2581 191.477 41.0318L192.234 39.1806C185.161 36.2888 176.833 34.9217 168.589 35.0563L168.621 37.0561ZM207.502 29.9173L191.355 39.2402L192.355 40.9722L208.502 31.6494L207.502 29.9173ZM209.001 56.6576L209.002 30.7834L207.002 30.7833L207.001 56.6575L209.001 56.6576ZM207.008 56.7779C207.691 62.4143 204.334 68.4135 196.349 73.0235L197.348 74.7556C205.731 69.916 209.809 63.2613 208.993 56.5372L207.008 56.7779ZM196.349 73.0235L80.9547 139.641L81.9546 141.373L197.348 74.7556L196.349 73.0235ZM80.9547 139.641C73.6448 143.861 64.001 146 54.3031 146C44.6052 146 34.9614 143.861 27.6515 139.641L26.6516 141.373C34.3371 145.81 44.3472 148 54.3031 148C64.259 148 74.2691 145.81 81.9546 141.373L80.9547 139.641ZM27.6515 139.641C19.9472 135.194 16.5514 129.45 16.9343 123.999L14.9392 123.859C14.4834 130.349 18.5641 136.704 26.6516 141.373L27.6515 139.641ZM14.9375 99.2818L14.9368 123.929L16.9368 123.929L16.9375 99.2818L14.9375 99.2818Z" fill="white" mask="url(#path-1-inside-1_16001_6975)"/>
<rect width="195.946" height="62.7026" rx="31.3513" transform="matrix(0.866041 -0.499972 0.866041 0.499972 0 98.3774)" fill="white"/>
<path d="M93.5098 72.2183C92.8981 71.9333 92.2188 71.8286 91.4721 71.9041C90.7296 71.9772 90.0103 72.2146 89.3143 72.6165C88.8249 72.899 88.4789 73.184 88.2764 73.4713C88.0739 73.7587 88.0064 74.0291 88.0739 74.2824C88.1414 74.5357 88.3355 74.7573 88.6561 74.9473C88.9261 75.1031 89.2214 75.203 89.5421 75.2468C89.8669 75.2882 90.2065 75.287 90.5609 75.2432C90.911 75.1969 91.2633 75.1251 91.6177 75.0276C91.972 74.9302 92.3138 74.8231 92.6428 74.7061L94.1616 74.1801C94.7648 73.9633 95.3892 73.7807 96.0347 73.6321C96.6844 73.4811 97.3362 73.3873 97.9901 73.3508C98.6482 73.3118 99.2915 73.352 99.9201 73.4713C100.549 73.5907 101.144 73.8123 101.705 74.1362C102.464 74.5746 102.939 75.0727 103.128 75.6304C103.314 76.1857 103.202 76.769 102.793 77.3803C102.384 77.9868 101.66 78.5896 100.623 79.1887C99.6143 79.7708 98.5828 80.186 97.5281 80.4344C96.4776 80.6804 95.4441 80.7511 94.4273 80.6463C93.4149 80.5392 92.4614 80.2469 91.5671 79.7696L93.8768 78.4361C94.362 78.6772 94.8766 78.8136 95.4209 78.8453C95.9651 78.8769 96.5072 78.8221 97.0472 78.6809C97.5914 78.5372 98.1082 78.3241 98.5976 78.0416C99.108 77.7469 99.4793 77.4449 99.7113 77.1356C99.9433 76.8214 100.032 76.5218 99.9771 76.2369C99.918 75.9495 99.705 75.6974 99.3379 75.4806C98.9962 75.2882 98.6186 75.1847 98.2052 75.1701C97.7876 75.1531 97.3298 75.203 96.832 75.3199C96.3342 75.4319 95.7942 75.5878 95.212 75.7875L93.3579 76.4195C92.0163 76.8774 90.7571 77.1246 89.58 77.1611C88.403 77.1928 87.3504 76.9407 86.4223 76.4049C85.6587 75.9641 85.1968 75.4587 85.0365 74.8888C84.8804 74.3165 85.0027 73.7319 85.4035 73.1352C85.8001 72.5361 86.4518 71.9747 87.3589 71.4511C88.2786 70.9202 89.2446 70.5475 90.2571 70.3332C91.2696 70.114 92.2568 70.0531 93.2187 70.1505C94.1763 70.2455 95.0264 70.5 95.7689 70.9141L93.5098 72.2183ZM102.112 66.8793L103.884 67.9022L98.2965 71.128L96.5247 70.1051L102.112 66.8793ZM95.5755 67.9643L97.8662 66.6418L106.991 71.9098C107.299 72.0876 107.582 72.1972 107.839 72.2386C108.097 72.2752 108.333 72.2654 108.548 72.2094C108.763 72.1534 108.966 72.0706 109.156 71.961C109.299 71.8782 109.419 71.7966 109.516 71.7162C109.617 71.6334 109.691 71.5689 109.738 71.5226L111.915 72.3336C111.834 72.4286 111.706 72.5565 111.529 72.7172C111.356 72.8755 111.111 73.0509 110.794 73.2433C110.238 73.5842 109.634 73.8327 108.985 73.9885C108.331 74.142 107.666 74.1797 106.991 74.1018C106.321 74.0214 105.684 73.8047 105.08 73.4515L95.5755 67.9643ZM116.385 70.0889C115.769 70.4445 115.105 70.7015 114.392 70.8598C113.679 71.0132 112.961 71.0473 112.24 70.9621C111.523 70.8744 110.846 70.6467 110.209 70.2789C109.66 69.9623 109.308 69.642 109.152 69.3181C108.996 68.9942 108.985 68.669 109.12 68.3427C109.255 68.0163 109.487 67.6948 109.816 67.3782C110.145 67.0567 110.521 66.745 110.943 66.443C111.453 66.0801 111.862 65.783 112.17 65.5516C112.474 65.3178 112.656 65.1254 112.715 64.9744C112.774 64.8185 112.694 64.6773 112.474 64.5506L112.436 64.5287C111.959 64.2535 111.449 64.122 110.905 64.1341C110.361 64.1463 109.823 64.3058 109.291 64.6127C108.73 64.9366 108.407 65.2642 108.323 65.5954C108.243 65.9242 108.312 66.2177 108.532 66.4759L106.089 67.5353C105.667 67.0969 105.452 66.6512 105.444 66.1982C105.431 65.7428 105.606 65.2959 105.969 64.8575C106.327 64.4167 106.846 64.0002 107.526 63.6081C107.994 63.3377 108.515 63.1003 109.089 62.8957C109.662 62.6911 110.268 62.5511 110.905 62.4756C111.538 62.3976 112.185 62.4159 112.848 62.5304C113.514 62.6424 114.17 62.8847 114.816 63.2574L121.321 67.0129L119.119 68.2842L117.783 67.5134L117.707 67.5572C117.838 67.7935 117.895 68.0529 117.878 68.3354C117.861 68.613 117.735 68.9029 117.499 69.2049C117.262 69.502 116.891 69.7967 116.385 70.0889ZM115.296 68.7738C115.756 68.5083 116.064 68.2258 116.22 67.9262C116.372 67.6242 116.387 67.3332 116.265 67.0531C116.147 66.7706 115.908 66.5258 115.55 66.3188L114.404 65.6575C114.392 65.7331 114.324 65.8353 114.202 65.9644C114.084 66.0911 113.938 66.2262 113.765 66.3699C113.592 66.5136 113.417 66.6537 113.24 66.7901C113.063 66.9264 112.909 67.0446 112.778 67.1444C112.483 67.3685 112.253 67.5889 112.088 67.8057C111.924 68.0224 111.858 68.2307 111.892 68.4304C111.922 68.6276 112.084 68.8115 112.379 68.982C112.801 69.2256 113.274 69.3205 113.797 69.267C114.32 69.2134 114.82 69.049 115.296 68.7738ZM122.306 62.9224L119.534 61.3296L119.901 61.1177L119.49 56.8471L122.167 55.3017L122.654 60.5442L122.179 60.8182L122.306 62.9224ZM123.268 65.8889L110.308 58.407L112.599 57.0845L125.559 64.5664L123.268 65.8889ZM129.368 62.3671L121.781 61.6401L121.711 59.8172L132.108 60.7853L129.368 62.3671ZM137.15 58.094C136.175 58.6566 135.131 59.0256 134.017 59.2009C132.904 59.3714 131.783 59.3507 130.657 59.1388C129.526 58.9245 128.453 58.5239 127.436 57.9369C126.436 57.3597 125.749 56.7435 125.373 56.0884C124.998 55.4283 124.943 54.7781 125.209 54.1375C125.47 53.4946 126.065 52.9052 126.993 52.3694C127.592 52.0235 128.254 51.7532 128.98 51.5583C129.706 51.3586 130.474 51.2563 131.284 51.2515C132.098 51.2442 132.933 51.3513 133.789 51.5729C134.642 51.7921 135.494 52.1477 136.346 52.6397L137.048 53.0452L129.081 57.6447L127.537 56.7533L133.308 53.4215C132.866 53.1706 132.38 53.0001 131.853 52.91C131.321 52.8175 130.79 52.8102 130.258 52.8881C129.731 52.9636 129.248 53.128 128.809 53.3813C128.341 53.6516 128.044 53.9549 127.917 54.291C127.786 54.6246 127.805 54.9546 127.974 55.281C128.143 55.6025 128.442 55.8899 128.873 56.1432L130.22 56.9213C130.786 57.2477 131.374 57.4681 131.986 57.5825C132.593 57.6946 133.19 57.7055 133.777 57.6154C134.359 57.5229 134.899 57.3329 135.397 57.0455C135.73 56.8531 135.985 56.6522 136.162 56.4427C136.335 56.2308 136.428 56.0141 136.441 55.7925C136.454 55.5708 136.373 55.3516 136.2 55.1349L138.58 54.0389C139.01 54.4432 139.246 54.8767 139.289 55.3394C139.331 55.7973 139.175 56.2625 138.82 56.735C138.462 57.205 137.905 57.658 137.15 58.094Z" fill="#161627"/>
</svg>
