<svg width="224" height="147" viewBox="0 0 224 147" fill="none" xmlns="http://www.w3.org/2000/svg">
<mask id="path-1-inside-1_16001_7020" fill="white">
<path fill-rule="evenodd" clip-rule="evenodd" d="M15.9375 99.2818L170.048 10.2993L170.048 35.2232L168.605 36.0562C176.736 35.9235 184.926 37.2735 191.855 40.1062L208.002 30.7834L208.001 56.6576C208.75 62.8378 205.033 69.1648 196.848 73.8895L81.4546 140.507C66.4593 149.164 42.1469 149.164 27.1516 140.507C19.2557 135.949 15.5174 129.899 15.9368 123.929L15.9375 99.2818Z"/>
</mask>
<path fill-rule="evenodd" clip-rule="evenodd" d="M15.9375 99.2818L170.048 10.2993L170.048 35.2232L168.605 36.0562C176.736 35.9235 184.926 37.2735 191.855 40.1062L208.002 30.7834L208.001 56.6576C208.75 62.8378 205.033 69.1648 196.848 73.8895L81.4546 140.507C66.4593 149.164 42.1469 149.164 27.1516 140.507C19.2557 135.949 15.5174 129.899 15.9368 123.929L15.9375 99.2818Z" fill="#161627"/>
<path d="M170.048 10.2993L171.048 10.2994L171.048 8.56717L169.548 9.43331L170.048 10.2993ZM15.9375 99.2818L15.4375 98.4158L14.9376 98.7044L14.9375 99.2818L15.9375 99.2818ZM170.048 35.2232L170.548 36.0892L171.048 35.8005L171.048 35.2232L170.048 35.2232ZM168.605 36.0562L168.105 35.1902L164.764 37.119L168.621 37.0561L168.605 36.0562ZM191.855 40.1062L191.477 41.0318L191.931 41.2174L192.355 40.9722L191.855 40.1062ZM208.002 30.7834L209.002 30.7834L209.002 29.0512L207.502 29.9173L208.002 30.7834ZM208.001 56.6576L207.001 56.6575V56.718L207.008 56.7779L208.001 56.6576ZM196.848 73.8895L196.349 73.0235L196.848 73.8895ZM81.4546 140.507L81.9546 141.373L81.4546 140.507ZM27.1516 140.507L27.6515 139.641L27.1516 140.507ZM15.9368 123.929L16.9343 123.999L16.9368 123.964L16.9368 123.929L15.9368 123.929ZM169.548 9.43331L15.4375 98.4158L16.4376 100.148L170.548 11.1653L169.548 9.43331ZM171.048 35.2232L171.048 10.2994L169.048 10.2993L169.048 35.2232L171.048 35.2232ZM169.105 36.9222L170.548 36.0892L169.548 34.3572L168.105 35.1902L169.105 36.9222ZM168.621 37.0561C176.64 36.9252 184.692 38.2581 191.477 41.0318L192.234 39.1806C185.161 36.2888 176.833 34.9217 168.589 35.0563L168.621 37.0561ZM207.502 29.9173L191.355 39.2402L192.355 40.9722L208.502 31.6494L207.502 29.9173ZM209.001 56.6576L209.002 30.7834L207.002 30.7833L207.001 56.6575L209.001 56.6576ZM207.008 56.7779C207.691 62.4143 204.334 68.4135 196.349 73.0235L197.348 74.7556C205.731 69.916 209.809 63.2613 208.993 56.5372L207.008 56.7779ZM196.349 73.0235L80.9547 139.641L81.9546 141.373L197.348 74.7556L196.349 73.0235ZM80.9547 139.641C73.6448 143.861 64.001 146 54.3031 146C44.6052 146 34.9614 143.861 27.6515 139.641L26.6516 141.373C34.3371 145.81 44.3472 148 54.3031 148C64.259 148 74.2691 145.81 81.9546 141.373L80.9547 139.641ZM27.6515 139.641C19.9472 135.194 16.5514 129.45 16.9343 123.999L14.9392 123.859C14.4834 130.349 18.5641 136.704 26.6516 141.373L27.6515 139.641ZM14.9375 99.2818L14.9368 123.929L16.9368 123.929L16.9375 99.2818L14.9375 99.2818Z" fill="white" mask="url(#path-1-inside-1_16001_7020)"/>
<rect width="195.946" height="62.7026" rx="31.3513" transform="matrix(0.866041 -0.499972 0.866041 0.499972 0 98.3774)" fill="white"/>
<path d="M88.9698 70.7235L102.544 74.6654L102.676 74.5887L95.8421 66.7561L98.4239 65.2656L106.815 75.3851L103.917 77.0583L86.3942 72.2104L88.9698 70.7235ZM116.019 70.2909C115.07 70.8389 114.038 71.1932 112.924 71.354C111.811 71.5147 110.686 71.4891 109.551 71.2773C108.421 71.0629 107.353 70.6659 106.349 70.0863C105.345 69.5066 104.656 68.8892 104.28 68.2341C103.909 67.5765 103.862 66.9262 104.141 66.2833C104.419 65.6403 105.033 65.0448 105.982 64.4968C106.932 63.9488 107.963 63.5945 109.077 63.4337C110.191 63.273 111.315 63.301 112.45 63.5177C113.589 63.7321 114.66 64.1291 115.664 64.7087C116.668 65.2884 117.354 65.9058 117.721 66.5609C118.092 67.2136 118.139 67.8615 117.86 68.5044C117.582 69.1474 116.968 69.7429 116.019 70.2909ZM114.196 69.2241C114.711 68.927 115 68.597 115.063 68.2341C115.122 67.8688 114.996 67.4986 114.683 67.1235C114.376 66.746 113.926 66.3868 113.336 66.0458C112.741 65.7024 112.116 65.4418 111.463 65.264C110.809 65.0813 110.165 65.0071 109.532 65.0412C108.9 65.0753 108.326 65.2409 107.811 65.538C107.284 65.8424 106.989 66.1785 106.925 66.5463C106.866 66.9116 106.993 67.2843 107.305 67.6642C107.617 68.0393 108.071 68.3985 108.665 68.7419C109.256 69.0829 109.876 69.3435 110.526 69.5237C111.18 69.7015 111.823 69.7733 112.456 69.7392C113.089 69.7003 113.669 69.5286 114.196 69.2241ZM117.208 58.1623L118.98 59.1852L113.392 62.4111L111.62 61.3882L117.208 58.1623ZM110.671 59.2474L112.962 57.9249L122.087 63.1929C122.395 63.3707 122.678 63.4803 122.935 63.5217C123.192 63.5582 123.428 63.5484 123.644 63.4924C123.859 63.4364 124.061 63.3536 124.251 63.244C124.395 63.1612 124.515 63.0796 124.612 62.9992C124.713 62.9164 124.787 62.8519 124.833 62.8056L127.01 63.6166C126.93 63.7116 126.801 63.8395 126.624 64.0002C126.451 64.1585 126.207 64.3339 125.89 64.5263C125.333 64.8673 124.73 65.1157 124.08 65.2716C123.426 65.425 122.762 65.4628 122.087 65.3848C121.416 65.3044 120.779 65.0877 120.176 64.7345L110.671 59.2474ZM132.876 60.5591C131.901 61.1217 130.857 61.4907 129.743 61.6661C128.63 61.8365 127.51 61.8158 126.383 61.604C125.253 61.3896 124.179 60.989 123.162 60.402C122.162 59.8248 121.475 59.2086 121.099 58.5535C120.724 57.8935 120.669 57.2432 120.935 56.6027C121.196 55.9597 121.791 55.3703 122.719 54.8345C123.318 54.4886 123.981 54.2183 124.706 54.0235C125.432 53.8237 126.2 53.7215 127.01 53.7166C127.824 53.7093 128.659 53.8164 129.516 54.0381C130.368 54.2573 131.22 54.6128 132.072 55.1048L132.775 55.5103L124.808 60.1098L123.263 59.2184L129.035 55.8866C128.592 55.6358 128.107 55.4653 127.579 55.3752C127.048 55.2826 126.516 55.2753 125.985 55.3532C125.457 55.4287 124.974 55.5931 124.535 55.8464C124.067 56.1168 123.77 56.42 123.643 56.7561C123.512 57.0898 123.531 57.4198 123.7 57.7461C123.869 58.0676 124.168 58.355 124.599 58.6083L125.947 59.3864C126.512 59.7128 127.1 59.9332 127.712 60.0477C128.32 60.1597 128.917 60.1707 129.503 60.0805C130.085 59.988 130.625 59.798 131.123 59.5106C131.456 59.3182 131.711 59.1173 131.889 58.9079C132.062 58.696 132.154 58.4792 132.167 58.2576C132.18 58.0359 132.1 57.8168 131.927 57.6L134.306 56.504C134.736 56.9083 134.973 57.3418 135.015 57.8046C135.057 58.2624 134.901 58.7276 134.546 59.2001C134.188 59.6702 133.631 60.1232 132.876 60.5591Z" fill="#161627"/>
</svg>
