<svg width="64" height="64" viewBox="0 0 64 64" fill="none" xmlns="http://www.w3.org/2000/svg">
<circle cx="32" cy="32" r="32" fill="#4A4E69"/>
<path d="M32.2236 14.8242C32.4459 14.8529 32.6619 14.9236 32.8584 15.0342L46.6084 22.7686C46.8788 22.9207 47.1041 23.1423 47.2607 23.4102C47.4174 23.6781 47.5 23.9835 47.5 24.2939V39.707L47.4961 39.8232C47.4781 40.0929 47.3977 40.3556 47.2607 40.5898C47.104 40.8577 46.8789 41.0802 46.6084 41.2324L32.8584 48.9668C32.5965 49.1141 32.3005 49.1914 32 49.1914C31.6995 49.1914 31.4035 49.1141 31.1416 48.9668L17.3916 41.2324C17.1211 41.0802 16.896 40.8577 16.7393 40.5898C16.5827 40.3221 16.5001 40.0172 16.5 39.707V24.2939C16.5 23.9835 16.5826 23.6781 16.7393 23.4102C16.8959 23.1423 17.1212 22.9207 17.3916 22.7686L31.1416 15.0342C31.4035 14.8868 31.6995 14.8096 32 14.8096L32.2236 14.8242ZM17.5 39.707C17.5001 39.8399 17.5354 39.9712 17.6025 40.0859C17.6696 40.2004 17.7662 40.2952 17.8818 40.3604L31.5068 48.0244L31.6455 32.293L17.5 24.4131V39.707ZM32.6455 32.291L32.5078 48.0156L46.1182 40.3604C46.2338 40.2952 46.3304 40.2004 46.3975 40.0859C46.4646 39.9712 46.4999 39.8399 46.5 39.707V24.4219L32.6455 32.291ZM32 15.8096C31.8712 15.8096 31.7441 15.8431 31.6318 15.9062L18.0234 23.5605L32.1455 31.4258L45.9824 23.5645L32.3682 15.9062C32.2559 15.8431 32.1288 15.8096 32 15.8096Z" fill="#1F1F33"/>
</svg>
